<svg width="1440" height="443" viewBox="0 0 1440 443" fill="none" xmlns="http://www.w3.org/2000/svg">
<mask id="path-1-inside-1_277_1116" fill="white">
<path fill-rule="evenodd" clip-rule="evenodd" d="M15 0C6.71573 0 0 6.71573 0 15V64V90V443H1440V64H198V15C198 6.71573 191.284 0 183 0H15Z"/>
</mask>
<path fill-rule="evenodd" clip-rule="evenodd" d="M15 0C6.71573 0 0 6.71573 0 15V64V90V443H1440V64H198V15C198 6.71573 191.284 0 183 0H15Z" fill="#8EB9FE"/>
<path d="M0 443H-1V444H0V443ZM1440 443V444H1441V443H1440ZM1440 64H1441V63H1440V64ZM198 64H197V65H198V64ZM1 15C1 7.26801 7.26801 1 15 1V-1C6.16344 -1 -1 6.16344 -1 15H1ZM1 64V15H-1V64H1ZM1 90V64H-1V90H1ZM1 443V90H-1V443H1ZM1440 442H0V444H1440V442ZM1439 64V443H1441V64H1439ZM198 65H1440V63H198V65ZM197 15V64H199V15H197ZM183 1C190.732 1 197 7.26801 197 15H199C199 6.16344 191.837 -1 183 -1V1ZM15 1H183V-1H15V1Z" fill="black" mask="url(#path-1-inside-1_277_1116)"/>
<path d="M38.7305 25.5273L43.8984 40.3164C44.1719 41.082 44.4297 41.6367 44.6719 41.9805C44.9141 42.3242 45.1445 42.543 45.3633 42.6367C45.5898 42.7227 45.875 42.7812 46.2188 42.8125V43H40.582V42.8125C41.1602 42.8125 41.6055 42.7578 41.918 42.6484C42.2305 42.5391 42.3867 42.2422 42.3867 41.7578C42.3867 41.4922 42.3125 41.1367 42.1641 40.6914C42.1328 40.6289 42.1172 40.582 42.1172 40.5508L40.582 35.9688H34.6055L33.2344 40.2109C33.0469 40.7891 32.9531 41.2539 32.9531 41.6055C32.9531 42.0898 33.0742 42.4141 33.3164 42.5781C33.5586 42.7344 33.9023 42.8125 34.3477 42.8125V43H30.293V42.8125C30.8711 42.7578 31.332 42.5391 31.6758 42.1562C32.0273 41.7656 32.332 41.1758 32.5898 40.3867L37.4648 25.5273H38.7305ZM34.8047 35.3477H40.3008L37.4883 27.1562H37.4414L34.8047 35.3477ZM53.8242 43H47.3672V42.8125H47.6016C48.0391 42.8125 48.4141 42.6562 48.7266 42.3438C49.0469 42.0234 49.207 41.5469 49.207 40.9141V27.8828C49.207 27.2656 49.0586 26.7891 48.7617 26.4531C48.4727 26.1094 48.0781 25.9375 47.5781 25.9375H47.3672V25.7383H53.0039C53.7461 25.7383 54.4297 25.8477 55.0547 26.0664C55.6797 26.2773 56.207 26.5742 56.6367 26.957C57.0742 27.332 57.4102 27.7617 57.6445 28.2461C57.8789 28.7227 57.9961 29.2422 57.9961 29.8047C57.9961 30.8438 57.6602 31.6875 56.9883 32.3359C56.3164 32.9844 55.4141 33.4609 54.2812 33.7656V33.8125C54.7969 33.8672 55.293 33.9492 55.7695 34.0586C56.2461 34.168 56.6758 34.3203 57.0586 34.5156C57.4414 34.7109 57.8008 34.9648 58.1367 35.2773C58.4414 35.5586 58.6992 35.8672 58.9102 36.2031C59.1211 36.5391 59.2812 36.9062 59.3906 37.3047C59.5 37.6953 59.5547 38.0977 59.5547 38.5117C59.5547 39.4102 59.3203 40.1836 58.8516 40.832C58.3906 41.4805 57.8672 41.9727 57.2812 42.3086C56.4453 42.7695 55.293 43 53.8242 43ZM50.9883 33.6602H52.1133C53.0352 33.6602 53.6914 33.5664 54.082 33.3789C54.332 33.2539 54.5898 33.082 54.8555 32.8633C55.1289 32.6445 55.3867 32.3008 55.6289 31.832C55.8789 31.3633 56.0039 30.7969 56.0039 30.1328C56.0039 29.6172 55.9219 29.1289 55.7578 28.668C55.5938 28.1992 55.3555 27.7852 55.043 27.4258C54.7305 27.0664 54.3594 26.7852 53.9297 26.582C53.5 26.3789 53.0312 26.2773 52.5234 26.2773C52.0781 26.2773 51.5664 26.3633 50.9883 26.5352V33.6602ZM52.7578 34.1875H50.9883V40.4102C50.9883 40.8242 51.0273 41.1719 51.1055 41.4531C51.1914 41.7266 51.418 41.9648 51.7852 42.168C52.1523 42.3711 52.7188 42.4727 53.4844 42.4727C55.0703 42.4727 56.1992 41.9453 56.8711 40.8906C57.332 40.1641 57.5625 39.3477 57.5625 38.4414C57.5625 37.7852 57.4453 37.1914 57.2109 36.6602C56.9844 36.1289 56.668 35.6875 56.2617 35.3359C55.8633 34.9766 55.3594 34.6953 54.75 34.4922C54.1406 34.2891 53.4766 34.1875 52.7578 34.1875ZM79.7695 34.3867C79.7695 36.0039 79.3672 37.5078 78.5625 38.8984C77.7656 40.2891 76.6758 41.3984 75.293 42.2266C73.9102 43.0469 72.3789 43.457 70.6992 43.457C69.0117 43.457 67.4648 43.0469 66.0586 42.2266C64.6523 41.3984 63.543 40.2852 62.7305 38.8867C61.9258 37.4883 61.5234 35.9648 61.5234 34.3164C61.5234 33.0508 61.7617 31.8633 62.2383 30.7539C62.7227 29.6367 63.3945 28.6641 64.2539 27.8359C65.1211 27.0078 66.1055 26.3672 67.207 25.9141C68.3164 25.4609 69.4727 25.2344 70.6758 25.2344C71.8555 25.2344 72.9883 25.4531 74.0742 25.8906C75.1602 26.3203 76.1328 26.9453 76.9922 27.7656C77.8594 28.5859 78.5391 29.5586 79.0312 30.6836C79.5234 31.8086 79.7695 33.043 79.7695 34.3867ZM77.707 34.4336C77.707 32.1367 77.3008 30.3398 76.4883 29.043C75.6758 27.7461 74.7383 26.8789 73.6758 26.4414C72.6133 25.9961 71.6133 25.7734 70.6758 25.7734C69.9492 25.7734 69.1953 25.8945 68.4141 26.1367C67.6328 26.3711 66.8711 26.8047 66.1289 27.4375C65.3945 28.0703 64.7891 28.9609 64.3125 30.1094C63.8359 31.2578 63.5977 32.6758 63.5977 34.3633C63.5977 35.8477 63.793 37.1445 64.1836 38.2539C64.582 39.3555 65.125 40.2578 65.8125 40.9609C66.5078 41.6562 67.2695 42.1602 68.0977 42.4727C68.9336 42.7773 69.8008 42.9297 70.6992 42.9297C71.5039 42.9297 72.3164 42.7891 73.1367 42.5078C73.9648 42.2188 74.7188 41.7539 75.3984 41.1133C76.0859 40.4648 76.6406 39.5898 77.0625 38.4883C77.4922 37.3789 77.707 36.0273 77.707 34.4336ZM98.9531 43H95.332V40.1406L95.2734 40.0938C94.7734 41.2578 94.0234 42.1094 93.0234 42.6484C92.0312 43.1875 90.9922 43.457 89.9062 43.457C88.6797 43.457 87.5742 43.1641 86.5898 42.5781C85.6133 41.9922 84.8945 41.2695 84.4336 40.4102C84.1055 39.8008 83.8984 39.168 83.8125 38.5117C83.7266 37.8477 83.6836 37.1602 83.6836 36.4492V27.8594C83.6836 27.3438 83.5781 26.9102 83.3672 26.5586C83.1641 26.207 82.6719 26 81.8906 25.9375V25.7383H87.3164V25.9375C86.5195 26.0312 86.0117 26.2617 85.793 26.6289C85.5742 26.9961 85.4648 27.4062 85.4648 27.8594V36.3086C85.4648 38.0273 85.6406 39.2969 85.9922 40.1172C86.3672 40.9922 86.9297 41.6758 87.6797 42.168C88.4297 42.6602 89.2812 42.9062 90.2344 42.9062C90.6328 42.9062 91.1055 42.8359 91.6523 42.6953C92.1992 42.5547 92.7109 42.3203 93.1875 41.9922C94.6172 41.0156 95.332 39.4492 95.332 37.293V27.8594C95.332 27.3828 95.2227 26.9609 95.0039 26.5938C94.7852 26.2266 94.2695 26.0078 93.457 25.9375V25.7383H98.9766V25.9375C98.1797 25.9766 97.668 26.1992 97.4414 26.6055C97.2148 27.0117 97.1016 27.4219 97.1016 27.8359V40.9141C97.1016 41.3672 97.1758 41.7266 97.3242 41.9922C97.4805 42.25 97.6914 42.4336 97.957 42.543C98.2305 42.6523 98.5625 42.7422 98.9531 42.8125V43ZM115.395 29.1016H115.207C115.121 27.9766 114.793 27.25 114.223 26.9219C113.652 26.5859 112.949 26.418 112.113 26.418H108.68V40.9141C108.68 42.1406 109.305 42.7734 110.555 42.8125V43H105.059V42.8125C105.574 42.7969 106.008 42.6484 106.359 42.3672C106.719 42.0781 106.898 41.5938 106.898 40.9141V26.418H103.465C102.629 26.418 101.926 26.5859 101.355 26.9219C100.793 27.25 100.465 27.9766 100.371 29.1016H100.184V24.8828H100.371C100.496 25.0781 100.605 25.2227 100.699 25.3164C100.793 25.4102 100.914 25.4922 101.062 25.5625C101.211 25.625 101.383 25.6719 101.578 25.7031C101.781 25.7266 102.02 25.7383 102.293 25.7383H113.473C114.215 25.7383 114.793 25.4531 115.207 24.8828H115.395V29.1016ZM142.992 25.7383V25.9375C142.664 25.9766 142.43 26.0117 142.289 26.043C142.148 26.0664 141.992 26.1445 141.82 26.2773C141.555 26.4805 141.387 26.6719 141.316 26.8516C141.254 27.0312 141.215 27.3438 141.199 27.7891C141.176 27.8594 141.176 27.9297 141.199 28L141.797 40.8203C141.812 41.3594 141.941 41.8242 142.184 42.2148C142.426 42.6055 142.953 42.8047 143.766 42.8125V43H138.176V42.8125C138.91 42.7344 139.406 42.5234 139.664 42.1797C139.922 41.8281 140.031 41.2852 139.992 40.5508L139.395 27.2852H139.348L133.254 43L127.488 27.8594H127.441L126.82 40.0938C126.789 40.7656 126.828 41.2891 126.938 41.6641C127.055 42.0312 127.238 42.2969 127.488 42.4609C127.738 42.6172 128.109 42.7344 128.602 42.8125V43H124.254V42.8125C124.809 42.8047 125.23 42.6719 125.52 42.4141C125.809 42.1562 125.996 41.8359 126.082 41.4531C126.176 41.0625 126.246 40.5312 126.293 39.8594L126.984 27.2031C126.984 27.1562 126.938 27.0742 126.844 26.957C126.75 26.832 126.633 26.7109 126.492 26.5938C126.359 26.4688 126.23 26.3711 126.105 26.3008C125.84 26.1367 125.609 26.043 125.414 26.0195C125.219 25.9883 124.945 25.9609 124.594 25.9375V25.7383H128.602L133.945 39.8594L139.371 25.7383H142.992ZM145.172 25.9375V25.7383H155.461V28.457H155.297C155.297 27.0039 154.328 26.2773 152.391 26.2773H148.793V34.1172H151.957C152.582 34.1172 153.141 34.0156 153.633 33.8125C154.125 33.6094 154.406 33.1445 154.477 32.418H154.652V36.332H154.477C154.406 35.8867 154.273 35.5469 154.078 35.3125C153.883 35.0703 153.688 34.9102 153.492 34.832C153.305 34.7539 153.137 34.7148 152.988 34.7148C152.707 34.668 152.414 34.6445 152.109 34.6445H148.793V40.7734C148.793 41.2344 148.879 41.6328 149.051 41.9688C149.23 42.3047 149.641 42.4727 150.281 42.4727H152.848C153.465 42.4727 153.973 42.3828 154.371 42.2031C154.77 42.0234 155.082 41.7734 155.309 41.4531C155.543 41.1328 155.738 40.7461 155.895 40.293H156.059L155.461 43H145.172V42.8125H145.406C145.773 42.8125 146.133 42.6641 146.484 42.3672C146.836 42.0703 147.012 41.5859 147.012 40.9141V27.9062C147.012 27.375 146.891 26.9141 146.648 26.5234C146.414 26.1328 146 25.9375 145.406 25.9375H145.172Z" fill="black"/>
</svg>
