<svg width="1444" height="791" viewBox="0 0 1444 791" fill="none" xmlns="http://www.w3.org/2000/svg">
<mask id="path-1-inside-1_152_104" fill="white">
<path d="M285.365 0C294.202 8.06163e-05 301.365 7.16349 301.365 16V36H1444V791H0V36H201.237V16C201.237 7.16344 208.401 0 217.237 0H285.365Z"/>
</mask>
<path d="M285.365 0C294.202 8.06163e-05 301.365 7.16349 301.365 16V36H1444V791H0V36H201.237V16C201.237 7.16344 208.401 0 217.237 0H285.365Z" fill="#4D0012"/>
<path d="M285.365 0V-1V0ZM301.365 36H300.365V37H301.365V36ZM1444 36H1445V35H1444V36ZM1444 791V792H1445V791H1444ZM0 791H-1V792H0V791ZM0 36V35H-1V36H0ZM201.237 36V37H202.237V36H201.237ZM285.365 0V1C293.649 1.00008 300.365 7.71579 300.365 16H301.365H302.365C302.365 6.6112 294.754 -0.999914 285.365 -1V0ZM301.365 16H300.365V36H301.365H302.365V16H301.365ZM301.365 36V37H1444V36V35H301.365V36ZM1444 36H1443V791H1444H1445V36H1444ZM1444 791V790H0V791V792H1444V791ZM0 791H1V36H0H-1V791H0ZM0 36V37H201.237V36V35H0V36ZM201.237 36H202.237V16H201.237H200.237V36H201.237ZM201.237 16H202.237C202.237 7.71573 208.953 1 217.237 1V0V-1C207.848 -1 200.237 6.61116 200.237 16H201.237ZM217.237 0V1H285.365V0V-1H217.237V0Z" fill="black" mask="url(#path-1-inside-1_152_104)"/>
<path d="M236.955 29H233.457V28.8984H233.584C233.821 28.8984 234.024 28.8138 234.193 28.6445C234.367 28.471 234.454 28.2129 234.454 27.8701V20.8115C234.454 20.4772 234.373 20.2191 234.212 20.0371C234.056 19.8509 233.842 19.7578 233.571 19.7578H233.457V19.6499H236.51C236.912 19.6499 237.283 19.7091 237.621 19.8276C237.96 19.9419 238.245 20.1027 238.478 20.3101C238.715 20.5132 238.897 20.7459 239.024 21.0083C239.151 21.2664 239.214 21.5479 239.214 21.8525C239.214 22.4154 239.032 22.8724 238.668 23.2236C238.305 23.5749 237.816 23.833 237.202 23.998V24.0234C237.481 24.0531 237.75 24.0975 238.008 24.1567C238.266 24.216 238.499 24.2985 238.707 24.4043C238.914 24.5101 239.109 24.6476 239.291 24.8169C239.456 24.9692 239.595 25.1364 239.709 25.3184C239.824 25.5003 239.91 25.6992 239.97 25.915C240.029 26.1266 240.059 26.3446 240.059 26.5688C240.059 27.0555 239.932 27.4744 239.678 27.8257C239.428 28.1769 239.145 28.4435 238.827 28.6255C238.374 28.8752 237.75 29 236.955 29ZM235.418 23.9409H236.028C236.527 23.9409 236.883 23.8901 237.094 23.7886C237.23 23.7209 237.369 23.6278 237.513 23.5093C237.661 23.3908 237.801 23.2046 237.932 22.9507C238.068 22.6968 238.135 22.39 238.135 22.0303C238.135 21.751 238.091 21.4865 238.002 21.2368C237.913 20.9829 237.784 20.7586 237.615 20.564C237.445 20.3693 237.244 20.217 237.012 20.1069C236.779 19.9969 236.525 19.9419 236.25 19.9419C236.009 19.9419 235.732 19.9884 235.418 20.0815V23.9409ZM236.377 24.2266H235.418V27.5972C235.418 27.8215 235.44 28.0098 235.482 28.1621C235.528 28.3102 235.651 28.4393 235.85 28.5493C236.049 28.6593 236.356 28.7144 236.771 28.7144C237.63 28.7144 238.241 28.4287 238.605 27.8574C238.855 27.4639 238.979 27.0216 238.979 26.5308C238.979 26.1753 238.916 25.8537 238.789 25.5659C238.666 25.2782 238.495 25.0391 238.275 24.8486C238.059 24.654 237.786 24.5016 237.456 24.3916C237.126 24.2816 236.766 24.2266 236.377 24.2266ZM240.909 19.7578V19.6499H246.482V21.1226H246.394C246.394 20.3354 245.869 19.9419 244.819 19.9419H242.871V24.1885H244.584C244.923 24.1885 245.226 24.1335 245.492 24.0234C245.759 23.9134 245.911 23.6616 245.949 23.2681H246.044V25.3882H245.949C245.911 25.147 245.839 24.9629 245.733 24.8359C245.628 24.7048 245.522 24.618 245.416 24.5757C245.314 24.5334 245.223 24.5122 245.143 24.5122C244.991 24.4868 244.832 24.4741 244.667 24.4741H242.871V27.7939C242.871 28.0436 242.917 28.2594 243.01 28.4414C243.108 28.6234 243.33 28.7144 243.677 28.7144H245.067C245.401 28.7144 245.676 28.6657 245.892 28.5684C246.108 28.471 246.277 28.3356 246.4 28.1621C246.527 27.9886 246.633 27.7791 246.717 27.5337H246.806L246.482 29H240.909V28.8984H241.036C241.235 28.8984 241.43 28.818 241.62 28.6572C241.811 28.4964 241.906 28.234 241.906 27.8701V20.8242C241.906 20.5365 241.84 20.2868 241.709 20.0752C241.582 19.8636 241.358 19.7578 241.036 19.7578H240.909ZM247.65 19.7832H247.523V19.6499H250.761C251.281 19.6499 251.721 19.7303 252.081 19.8911C252.445 20.0519 252.726 20.2572 252.925 20.5068C253.128 20.7523 253.272 21.0125 253.357 21.2876C253.446 21.5627 253.49 21.8335 253.49 22.1001C253.49 22.4386 253.418 22.7645 253.274 23.0776C253.135 23.3866 252.917 23.6532 252.621 23.8774C252.329 24.1017 251.963 24.2541 251.522 24.3345V24.3599C252.081 24.6307 252.597 25.1681 253.071 25.9722L253.916 27.4004C254.296 28.0394 254.601 28.4435 254.83 28.6128C255.062 28.7821 255.291 28.8773 255.515 28.8984V29H253.814C253.742 28.9069 253.674 28.818 253.611 28.7334C253.547 28.6445 253.48 28.5514 253.408 28.4541C253.365 28.3906 253.302 28.2954 253.217 28.1685C253.137 28.0373 253.088 27.9632 253.071 27.9463L251.954 26.0991C251.73 25.7225 251.499 25.4178 251.262 25.1851C251.029 24.9481 250.812 24.7788 250.608 24.6772C250.405 24.5757 250.221 24.5122 250.056 24.4868C249.895 24.4614 249.705 24.4487 249.485 24.4487V27.8701C249.485 28.5345 249.823 28.8773 250.5 28.8984V29H247.523V28.8984C247.71 28.89 247.875 28.8561 248.019 28.7969C248.162 28.7334 248.281 28.6276 248.374 28.4795C248.471 28.3271 248.52 28.124 248.52 27.8701V20.7988C248.52 20.4264 248.429 20.1641 248.247 20.0117C248.065 19.8594 247.866 19.7832 247.65 19.7832ZM249.485 24.2012H250.018C250.577 24.2012 251.034 24.1208 251.389 23.96C251.749 23.7992 252.009 23.5706 252.17 23.2744C252.331 22.974 252.411 22.6079 252.411 22.1763C252.411 21.8166 252.339 21.4653 252.195 21.1226C252.051 20.7756 251.806 20.4857 251.459 20.2529C251.116 20.016 250.653 19.8975 250.069 19.8975C249.832 19.8975 249.637 19.9165 249.485 19.9546V24.2012ZM263.805 21.5923H263.704C263.568 20.9829 263.208 20.5111 262.625 20.1768C262.041 19.8382 261.374 19.6689 260.625 19.6689C260.236 19.6689 259.817 19.7303 259.368 19.853C258.924 19.9715 258.49 20.1895 258.067 20.5068C257.644 20.8242 257.292 21.2855 257.013 21.8906C256.734 22.4915 256.594 23.249 256.594 24.1631C256.594 25.6188 256.933 26.7826 257.61 27.6543C258.291 28.526 259.383 28.9619 260.885 28.9619C261.478 28.9619 261.914 28.9217 262.193 28.8413C262.472 28.7609 262.65 28.6509 262.726 28.5112C262.806 28.3716 262.847 28.1833 262.847 27.9463V26.2324C262.847 25.8262 262.758 25.5575 262.58 25.4263C262.407 25.2951 262.144 25.2083 261.793 25.166V25.0581H264.833V25.166C264.554 25.1956 264.338 25.257 264.186 25.3501C264.034 25.439 263.932 25.5553 263.881 25.6992C263.831 25.8431 263.805 26.0335 263.805 26.2705V28.873C262.874 29.1227 261.914 29.2476 260.923 29.2476C260.411 29.2476 259.906 29.2052 259.406 29.1206C258.907 29.036 258.386 28.8477 257.845 28.5557C257.303 28.2637 256.825 27.832 256.41 27.2607C255.788 26.4017 255.477 25.4305 255.477 24.3472C255.477 23.7166 255.593 23.103 255.826 22.5063C256.063 21.9097 256.402 21.3765 256.842 20.9067C257.286 20.4328 257.828 20.0604 258.467 19.7896C259.106 19.5145 259.815 19.377 260.593 19.377C260.894 19.377 261.188 19.3981 261.476 19.4404C261.763 19.4785 262.193 19.5589 262.764 19.6816C262.988 19.7324 263.149 19.7578 263.247 19.7578C263.454 19.7578 263.606 19.6541 263.704 19.4468H263.805V21.5923ZM265.398 19.7578V19.6499H270.972V21.1226H270.883C270.883 20.3354 270.358 19.9419 269.309 19.9419H267.36V24.1885H269.074C269.412 24.1885 269.715 24.1335 269.981 24.0234C270.248 23.9134 270.4 23.6616 270.438 23.2681H270.534V25.3882H270.438C270.4 25.147 270.328 24.9629 270.223 24.8359C270.117 24.7048 270.011 24.618 269.905 24.5757C269.804 24.5334 269.713 24.5122 269.632 24.5122C269.48 24.4868 269.321 24.4741 269.156 24.4741H267.36V27.7939C267.36 28.0436 267.406 28.2594 267.5 28.4414C267.597 28.6234 267.819 28.7144 268.166 28.7144H269.556C269.89 28.7144 270.166 28.6657 270.381 28.5684C270.597 28.471 270.766 28.3356 270.889 28.1621C271.016 27.9886 271.122 27.7791 271.207 27.5337H271.295L270.972 29H265.398V28.8984H265.525C265.724 28.8984 265.919 28.818 266.109 28.6572C266.3 28.4964 266.395 28.234 266.395 27.8701V20.8242C266.395 20.5365 266.329 20.2868 266.198 20.0752C266.071 19.8636 265.847 19.7578 265.525 19.7578H265.398ZM272.14 19.7832H272.013V19.6499H275.25C275.771 19.6499 276.211 19.7303 276.57 19.8911C276.934 20.0519 277.216 20.2572 277.415 20.5068C277.618 20.7523 277.762 21.0125 277.846 21.2876C277.935 21.5627 277.979 21.8335 277.979 22.1001C277.979 22.4386 277.908 22.7645 277.764 23.0776C277.624 23.3866 277.406 23.6532 277.11 23.8774C276.818 24.1017 276.452 24.2541 276.012 24.3345V24.3599C276.57 24.6307 277.087 25.1681 277.561 25.9722L278.405 27.4004C278.786 28.0394 279.09 28.4435 279.319 28.6128C279.552 28.7821 279.78 28.8773 280.004 28.8984V29H278.303C278.231 28.9069 278.164 28.818 278.1 28.7334C278.037 28.6445 277.969 28.5514 277.897 28.4541C277.855 28.3906 277.791 28.2954 277.707 28.1685C277.626 28.0373 277.577 27.9632 277.561 27.9463L276.443 26.0991C276.219 25.7225 275.988 25.4178 275.751 25.1851C275.519 24.9481 275.301 24.7788 275.098 24.6772C274.895 24.5757 274.71 24.5122 274.545 24.4868C274.385 24.4614 274.194 24.4487 273.974 24.4487V27.8701C273.974 28.5345 274.313 28.8773 274.99 28.8984V29H272.013V28.8984C272.199 28.89 272.364 28.8561 272.508 28.7969C272.652 28.7334 272.77 28.6276 272.863 28.4795C272.961 28.3271 273.009 28.124 273.009 27.8701V20.7988C273.009 20.4264 272.918 20.1641 272.736 20.0117C272.554 19.8594 272.355 19.7832 272.14 19.7832ZM273.974 24.2012H274.507C275.066 24.2012 275.523 24.1208 275.878 23.96C276.238 23.7992 276.498 23.5706 276.659 23.2744C276.82 22.974 276.9 22.6079 276.9 22.1763C276.9 21.8166 276.828 21.4653 276.685 21.1226C276.541 20.7756 276.295 20.4857 275.948 20.2529C275.605 20.016 275.142 19.8975 274.558 19.8975C274.321 19.8975 274.126 19.9165 273.974 19.9546V24.2012Z" fill="white"/>
</svg>
