<svg width="1440" height="295" viewBox="0 0 1440 295" fill="none" xmlns="http://www.w3.org/2000/svg">
<mask id="path-1-inside-1_262_1001" fill="white">
<path fill-rule="evenodd" clip-rule="evenodd" d="M609 0C600.716 0 594 6.71573 594 15V64H0V295H1440V64H792V15C792 6.71573 785.284 0 777 0H609Z"/>
</mask>
<path fill-rule="evenodd" clip-rule="evenodd" d="M609 0C600.716 0 594 6.71573 594 15V64H0V295H1440V64H792V15C792 6.71573 785.284 0 777 0H609Z" fill="#4D0012"/>
<path d="M594 64V65H595V64H594ZM0 64V63H-1V64H0ZM0 295H-1V296H0V295ZM1440 295V296H1441V295H1440ZM1440 64H1441V63H1440V64ZM792 64H791V65H792V64ZM595 15C595 7.26801 601.268 1 609 1V-1C600.163 -1 593 6.16344 593 15H595ZM595 64V15H593V64H595ZM0 65H594V63H0V65ZM1 295V64H-1V295H1ZM1440 294H0V296H1440V294ZM1439 64V295H1441V64H1439ZM792 65H1440V63H792V65ZM791 15V64H793V15H791ZM777 1C784.732 1 791 7.26801 791 15H793C793 6.16345 785.837 -1 777 -1V1ZM609 1H777V-1H609V1Z" fill="black" mask="url(#path-1-inside-1_262_1001)"/>
<path d="M630.441 26.6055H630.242C630.094 25.7617 629.695 25.0469 629.047 24.4609C628.406 23.875 627.668 23.4492 626.832 23.1836C625.996 22.9102 625.215 22.7734 624.488 22.7734C623.496 22.7734 622.562 22.9844 621.688 23.4062C620.82 23.8203 620.07 24.4102 619.438 25.1758C618.805 25.9336 618.312 26.8477 617.961 27.918C617.609 28.9805 617.434 30.1367 617.434 31.3867C617.434 32.5977 617.602 33.7227 617.938 34.7617C618.281 35.793 618.777 36.6914 619.426 37.457C620.082 38.2148 620.84 38.7891 621.699 39.1797C622.559 39.5703 623.512 39.7656 624.559 39.7656C625.434 39.7656 626.395 39.5898 627.441 39.2383C628.488 38.8789 629.434 38.2852 630.277 37.457V38.125C629.238 38.9297 628.285 39.5195 627.418 39.8945C626.559 40.2695 625.484 40.457 624.195 40.457C622.836 40.457 621.594 40.2109 620.469 39.7188C619.352 39.2188 618.406 38.5469 617.633 37.7031C616.859 36.8594 616.273 35.9102 615.875 34.8555C615.477 33.8008 615.277 32.7148 615.277 31.5977C615.277 29.918 615.691 28.3594 616.52 26.9219C617.348 25.4766 618.469 24.3359 619.883 23.5C621.297 22.6562 622.832 22.2344 624.488 22.2344C625.512 22.2344 626.602 22.3867 627.758 22.6914L628.977 23.0312C629.211 23.0781 629.41 23.1016 629.574 23.1016C629.879 23.1016 630.082 23.0586 630.184 22.9727C630.285 22.8789 630.363 22.7148 630.418 22.4805H630.605L630.441 26.6055ZM650.762 31.3867C650.762 33.0039 650.359 34.5078 649.555 35.8984C648.758 37.2891 647.668 38.3984 646.285 39.2266C644.902 40.0469 643.371 40.457 641.691 40.457C640.004 40.457 638.457 40.0469 637.051 39.2266C635.645 38.3984 634.535 37.2852 633.723 35.8867C632.918 34.4883 632.516 32.9648 632.516 31.3164C632.516 30.0508 632.754 28.8633 633.23 27.7539C633.715 26.6367 634.387 25.6641 635.246 24.8359C636.113 24.0078 637.098 23.3672 638.199 22.9141C639.309 22.4609 640.465 22.2344 641.668 22.2344C642.848 22.2344 643.98 22.4531 645.066 22.8906C646.152 23.3203 647.125 23.9453 647.984 24.7656C648.852 25.5859 649.531 26.5586 650.023 27.6836C650.516 28.8086 650.762 30.043 650.762 31.3867ZM648.699 31.4336C648.699 29.1367 648.293 27.3398 647.48 26.043C646.668 24.7461 645.73 23.8789 644.668 23.4414C643.605 22.9961 642.605 22.7734 641.668 22.7734C640.941 22.7734 640.188 22.8945 639.406 23.1367C638.625 23.3711 637.863 23.8047 637.121 24.4375C636.387 25.0703 635.781 25.9609 635.305 27.1094C634.828 28.2578 634.59 29.6758 634.59 31.3633C634.59 32.8477 634.785 34.1445 635.176 35.2539C635.574 36.3555 636.117 37.2578 636.805 37.9609C637.5 38.6562 638.262 39.1602 639.09 39.4727C639.926 39.7773 640.793 39.9297 641.691 39.9297C642.496 39.9297 643.309 39.7891 644.129 39.5078C644.957 39.2188 645.711 38.7539 646.391 38.1133C647.078 37.4648 647.633 36.5898 648.055 35.4883C648.484 34.3789 648.699 33.0273 648.699 31.4336ZM670.777 22.7383V22.9375C670.34 22.9922 669.992 23.0781 669.734 23.1953C669.484 23.3047 669.289 23.5273 669.148 23.8633C669.008 24.1914 668.938 24.668 668.938 25.293V40.4336H668.82L655.566 25.6445V36.2617C655.566 37.1445 655.602 37.8008 655.672 38.2305C655.742 38.6602 655.844 38.9688 655.977 39.1562C656.266 39.5625 656.77 39.7812 657.488 39.8125V40H653.164V39.8125C653.648 39.7891 654.023 39.6875 654.289 39.5078C654.562 39.3203 654.754 38.9844 654.863 38.5C654.98 38.0078 655.039 37.2695 655.039 36.2852V25.0234L654.465 24.3789C653.957 23.8008 653.551 23.4375 653.246 23.2891C652.941 23.1328 652.562 23.0156 652.109 22.9375V22.7383H655.355L668.41 37.3633V26.2188C668.41 25.3828 668.375 24.7578 668.305 24.3438C668.242 23.9297 668.066 23.5977 667.777 23.3477C667.496 23.0977 667.051 22.9609 666.441 22.9375V22.7383H670.777ZM687.16 26.1016H686.973C686.887 24.9766 686.559 24.25 685.988 23.9219C685.418 23.5859 684.715 23.418 683.879 23.418H680.445V37.9141C680.445 39.1406 681.07 39.7734 682.32 39.8125V40H676.824V39.8125C677.34 39.7969 677.773 39.6484 678.125 39.3672C678.484 39.0781 678.664 38.5938 678.664 37.9141V23.418H675.23C674.395 23.418 673.691 23.5859 673.121 23.9219C672.559 24.25 672.23 24.9766 672.137 26.1016H671.949V21.8828H672.137C672.262 22.0781 672.371 22.2227 672.465 22.3164C672.559 22.4102 672.68 22.4922 672.828 22.5625C672.977 22.625 673.148 22.6719 673.344 22.7031C673.547 22.7266 673.785 22.7383 674.059 22.7383H685.238C685.98 22.7383 686.559 22.4531 686.973 21.8828H687.16V26.1016ZM695.246 22.5273L700.414 37.3164C700.688 38.082 700.945 38.6367 701.188 38.9805C701.43 39.3242 701.66 39.543 701.879 39.6367C702.105 39.7227 702.391 39.7812 702.734 39.8125V40H697.098V39.8125C697.676 39.8125 698.121 39.7578 698.434 39.6484C698.746 39.5391 698.902 39.2422 698.902 38.7578C698.902 38.4922 698.828 38.1367 698.68 37.6914C698.648 37.6289 698.633 37.582 698.633 37.5508L697.098 32.9688H691.121L689.75 37.2109C689.562 37.7891 689.469 38.2539 689.469 38.6055C689.469 39.0898 689.59 39.4141 689.832 39.5781C690.074 39.7344 690.418 39.8125 690.863 39.8125V40H686.809V39.8125C687.387 39.7578 687.848 39.5391 688.191 39.1562C688.543 38.7656 688.848 38.1758 689.105 37.3867L693.98 22.5273H695.246ZM691.32 32.3477H696.816L694.004 24.1562H693.957L691.32 32.3477ZM718.098 26.6055H717.898C717.75 25.7617 717.352 25.0469 716.703 24.4609C716.062 23.875 715.324 23.4492 714.488 23.1836C713.652 22.9102 712.871 22.7734 712.145 22.7734C711.152 22.7734 710.219 22.9844 709.344 23.4062C708.477 23.8203 707.727 24.4102 707.094 25.1758C706.461 25.9336 705.969 26.8477 705.617 27.918C705.266 28.9805 705.09 30.1367 705.09 31.3867C705.09 32.5977 705.258 33.7227 705.594 34.7617C705.938 35.793 706.434 36.6914 707.082 37.457C707.738 38.2148 708.496 38.7891 709.355 39.1797C710.215 39.5703 711.168 39.7656 712.215 39.7656C713.09 39.7656 714.051 39.5898 715.098 39.2383C716.145 38.8789 717.09 38.2852 717.934 37.457V38.125C716.895 38.9297 715.941 39.5195 715.074 39.8945C714.215 40.2695 713.141 40.457 711.852 40.457C710.492 40.457 709.25 40.2109 708.125 39.7188C707.008 39.2188 706.062 38.5469 705.289 37.7031C704.516 36.8594 703.93 35.9102 703.531 34.8555C703.133 33.8008 702.934 32.7148 702.934 31.5977C702.934 29.918 703.348 28.3594 704.176 26.9219C705.004 25.4766 706.125 24.3359 707.539 23.5C708.953 22.6562 710.488 22.2344 712.145 22.2344C713.168 22.2344 714.258 22.3867 715.414 22.6914L716.633 23.0312C716.867 23.0781 717.066 23.1016 717.23 23.1016C717.535 23.1016 717.738 23.0586 717.84 22.9727C717.941 22.8789 718.02 22.7148 718.074 22.4805H718.262L718.098 26.6055ZM734.527 26.1016H734.34C734.254 24.9766 733.926 24.25 733.355 23.9219C732.785 23.5859 732.082 23.418 731.246 23.418H727.812V37.9141C727.812 39.1406 728.438 39.7734 729.688 39.8125V40H724.191V39.8125C724.707 39.7969 725.141 39.6484 725.492 39.3672C725.852 39.0781 726.031 38.5938 726.031 37.9141V23.418H722.598C721.762 23.418 721.059 23.5859 720.488 23.9219C719.926 24.25 719.598 24.9766 719.504 26.1016H719.316V21.8828H719.504C719.629 22.0781 719.738 22.2227 719.832 22.3164C719.926 22.4102 720.047 22.4922 720.195 22.5625C720.344 22.625 720.516 22.6719 720.711 22.7031C720.914 22.7266 721.152 22.7383 721.426 22.7383H732.605C733.348 22.7383 733.926 22.4531 734.34 21.8828H734.527V26.1016ZM762.125 22.7383V22.9375C761.797 22.9766 761.562 23.0117 761.422 23.043C761.281 23.0664 761.125 23.1445 760.953 23.2773C760.688 23.4805 760.52 23.6719 760.449 23.8516C760.387 24.0312 760.348 24.3438 760.332 24.7891C760.309 24.8594 760.309 24.9297 760.332 25L760.93 37.8203C760.945 38.3594 761.074 38.8242 761.316 39.2148C761.559 39.6055 762.086 39.8047 762.898 39.8125V40H757.309V39.8125C758.043 39.7344 758.539 39.5234 758.797 39.1797C759.055 38.8281 759.164 38.2852 759.125 37.5508L758.527 24.2852H758.48L752.387 40L746.621 24.8594H746.574L745.953 37.0938C745.922 37.7656 745.961 38.2891 746.07 38.6641C746.188 39.0312 746.371 39.2969 746.621 39.4609C746.871 39.6172 747.242 39.7344 747.734 39.8125V40H743.387V39.8125C743.941 39.8047 744.363 39.6719 744.652 39.4141C744.941 39.1562 745.129 38.8359 745.215 38.4531C745.309 38.0625 745.379 37.5312 745.426 36.8594L746.117 24.2031C746.117 24.1562 746.07 24.0742 745.977 23.957C745.883 23.832 745.766 23.7109 745.625 23.5938C745.492 23.4688 745.363 23.3711 745.238 23.3008C744.973 23.1367 744.742 23.043 744.547 23.0195C744.352 22.9883 744.078 22.9609 743.727 22.9375V22.7383H747.734L753.078 36.8594L758.504 22.7383H762.125ZM764.305 22.9375V22.7383H774.594V25.457H774.43C774.43 24.0039 773.461 23.2773 771.523 23.2773H767.926V31.1172H771.09C771.715 31.1172 772.273 31.0156 772.766 30.8125C773.258 30.6094 773.539 30.1445 773.609 29.418H773.785V33.332H773.609C773.539 32.8867 773.406 32.5469 773.211 32.3125C773.016 32.0703 772.82 31.9102 772.625 31.832C772.438 31.7539 772.27 31.7148 772.121 31.7148C771.84 31.668 771.547 31.6445 771.242 31.6445H767.926V37.7734C767.926 38.2344 768.012 38.6328 768.184 38.9688C768.363 39.3047 768.773 39.4727 769.414 39.4727H771.98C772.598 39.4727 773.105 39.3828 773.504 39.2031C773.902 39.0234 774.215 38.7734 774.441 38.4531C774.676 38.1328 774.871 37.7461 775.027 37.293H775.191L774.594 40H764.305V39.8125H764.539C764.906 39.8125 765.266 39.6641 765.617 39.3672C765.969 39.0703 766.145 38.5859 766.145 37.9141V24.9062C766.145 24.375 766.023 23.9141 765.781 23.5234C765.547 23.1328 765.133 22.9375 764.539 22.9375H764.305Z" fill="black"/>
</svg>
