<svg width="1311" height="870" viewBox="0 0 1311 870" fill="none" xmlns="http://www.w3.org/2000/svg">
<path fill-rule="evenodd" clip-rule="evenodd" d="M16 0C7.16344 0 0 7.16344 0 16V52C0 53.3812 0.175012 54.7215 0.50407 56H0V870H1311V56H147.496C147.825 54.7215 148 53.3812 148 52V16C148 7.16344 140.837 0 132 0H16Z" fill="#D9D9D9"/>
<path d="M49.5547 38.7578V34.9062C49.5547 34.5312 49.4531 34.224 49.25 33.9844C49.0469 33.7448 48.7318 33.625 48.3047 33.625V33.4922H51.9688V33.625C51.5417 33.625 51.2292 33.7448 51.0312 33.9844C50.8333 34.2188 50.7344 34.526 50.7344 34.9062V43.6094C50.7344 44.4531 51.1458 44.875 51.9688 44.875V45H48.3047V44.875C48.6953 44.875 49 44.7708 49.2188 44.5625C49.4427 44.349 49.5547 44.0365 49.5547 43.625V39.1094H42.9609V43.6094C42.9609 44.0104 43.0729 44.3229 43.2969 44.5469C43.526 44.7656 43.8307 44.875 44.2109 44.875V45H40.5469V44.875C40.9427 44.875 41.2448 44.7656 41.4531 44.5469C41.6667 44.3229 41.7734 44.0104 41.7734 43.6094V34.9062C41.7734 34.0521 41.3646 33.625 40.5469 33.625V33.4922H44.2109V33.625C43.7786 33.625 43.4609 33.7448 43.2578 33.9844C43.0599 34.2188 42.9609 34.526 42.9609 34.9062V38.7578H49.5547ZM65.4922 39.2578C65.4922 40.3359 65.224 41.3385 64.6875 42.2656C64.1562 43.1927 63.4297 43.9323 62.5078 44.4844C61.5859 45.0312 60.5651 45.3047 59.4453 45.3047C58.3203 45.3047 57.2891 45.0312 56.3516 44.4844C55.4141 43.9323 54.6745 43.1901 54.1328 42.2578C53.5964 41.3255 53.3281 40.3099 53.3281 39.2109C53.3281 38.3672 53.487 37.5755 53.8047 36.8359C54.1276 36.0911 54.5755 35.4427 55.1484 34.8906C55.7266 34.3385 56.3828 33.9115 57.1172 33.6094C57.8568 33.3073 58.6276 33.1562 59.4297 33.1562C60.2161 33.1562 60.9714 33.3021 61.6953 33.5938C62.4193 33.8802 63.0677 34.2969 63.6406 34.8438C64.2188 35.3906 64.6719 36.0391 65 36.7891C65.3281 37.5391 65.4922 38.362 65.4922 39.2578ZM64.1172 39.2891C64.1172 37.7578 63.8464 36.5599 63.3047 35.6953C62.763 34.8307 62.138 34.2526 61.4297 33.9609C60.7214 33.6641 60.0547 33.5156 59.4297 33.5156C58.9453 33.5156 58.4427 33.5964 57.9219 33.7578C57.401 33.9141 56.8932 34.2031 56.3984 34.625C55.9089 35.0469 55.5052 35.6406 55.1875 36.4062C54.8698 37.1719 54.7109 38.1172 54.7109 39.2422C54.7109 40.2318 54.8411 41.0964 55.1016 41.8359C55.3672 42.5703 55.7292 43.1719 56.1875 43.6406C56.651 44.1042 57.1589 44.4401 57.7109 44.6484C58.2682 44.8516 58.8464 44.9531 59.4453 44.9531C59.9818 44.9531 60.5234 44.8594 61.0703 44.6719C61.6224 44.4792 62.125 44.1693 62.5781 43.7422C63.0365 43.3099 63.4062 42.7266 63.6875 41.9922C63.974 41.2526 64.1172 40.3516 64.1172 39.2891ZM71.2109 45H66.9062V44.875H67.0625C67.3542 44.875 67.6042 44.7708 67.8125 44.5625C68.026 44.349 68.1328 44.0312 68.1328 43.6094V34.9219C68.1328 34.5104 68.0339 34.1927 67.8359 33.9688C67.6432 33.7396 67.3802 33.625 67.0469 33.625H66.9062V33.4922H70.6641C71.1589 33.4922 71.6146 33.5651 72.0312 33.7109C72.4479 33.8516 72.7995 34.0495 73.0859 34.3047C73.3776 34.5547 73.6016 34.8411 73.7578 35.1641C73.9141 35.4818 73.9922 35.8281 73.9922 36.2031C73.9922 36.8958 73.7682 37.4583 73.3203 37.8906C72.8724 38.3229 72.2708 38.6406 71.5156 38.8438V38.875C71.8594 38.9115 72.1901 38.9661 72.5078 39.0391C72.8255 39.112 73.112 39.2135 73.3672 39.3438C73.6224 39.474 73.862 39.6432 74.0859 39.8516C74.2891 40.0391 74.4609 40.2448 74.6016 40.4688C74.7422 40.6927 74.849 40.9375 74.9219 41.2031C74.9948 41.4635 75.0312 41.7318 75.0312 42.0078C75.0312 42.6068 74.875 43.1224 74.5625 43.5547C74.2552 43.987 73.9062 44.3151 73.5156 44.5391C72.9583 44.8464 72.1901 45 71.2109 45ZM69.3203 38.7734H70.0703C70.6849 38.7734 71.1224 38.7109 71.3828 38.5859C71.5495 38.5026 71.7214 38.388 71.8984 38.2422C72.0807 38.0964 72.2526 37.8672 72.4141 37.5547C72.5807 37.2422 72.6641 36.8646 72.6641 36.4219C72.6641 36.0781 72.6094 35.7526 72.5 35.4453C72.3906 35.1328 72.2318 34.8568 72.0234 34.6172C71.8151 34.3776 71.5677 34.1901 71.2812 34.0547C70.9948 33.9193 70.6823 33.8516 70.3438 33.8516C70.0469 33.8516 69.7057 33.9089 69.3203 34.0234V38.7734ZM70.5 39.125H69.3203V43.2734C69.3203 43.5495 69.3464 43.7812 69.3984 43.9688C69.4557 44.151 69.6068 44.3099 69.8516 44.4453C70.0964 44.5807 70.474 44.6484 70.9844 44.6484C72.0417 44.6484 72.7943 44.2969 73.2422 43.5938C73.5495 43.1094 73.7031 42.5651 73.7031 41.9609C73.7031 41.5234 73.625 41.1276 73.4688 40.7734C73.3177 40.4193 73.1068 40.125 72.8359 39.8906C72.5703 39.651 72.2344 39.4635 71.8281 39.3281C71.4219 39.1927 70.9792 39.125 70.5 39.125ZM80.3828 45H76.0781V44.875H76.2344C76.526 44.875 76.776 44.7708 76.9844 44.5625C77.1979 44.349 77.3047 44.0312 77.3047 43.6094V34.9219C77.3047 34.5104 77.2057 34.1927 77.0078 33.9688C76.8151 33.7396 76.5521 33.625 76.2188 33.625H76.0781V33.4922H79.8359C80.3307 33.4922 80.7865 33.5651 81.2031 33.7109C81.6198 33.8516 81.9714 34.0495 82.2578 34.3047C82.5495 34.5547 82.7734 34.8411 82.9297 35.1641C83.0859 35.4818 83.1641 35.8281 83.1641 36.2031C83.1641 36.8958 82.9401 37.4583 82.4922 37.8906C82.0443 38.3229 81.4427 38.6406 80.6875 38.8438V38.875C81.0312 38.9115 81.362 38.9661 81.6797 39.0391C81.9974 39.112 82.2839 39.2135 82.5391 39.3438C82.7943 39.474 83.0339 39.6432 83.2578 39.8516C83.4609 40.0391 83.6328 40.2448 83.7734 40.4688C83.9141 40.6927 84.0208 40.9375 84.0938 41.2031C84.1667 41.4635 84.2031 41.7318 84.2031 42.0078C84.2031 42.6068 84.0469 43.1224 83.7344 43.5547C83.4271 43.987 83.0781 44.3151 82.6875 44.5391C82.1302 44.8464 81.362 45 80.3828 45ZM78.4922 38.7734H79.2422C79.8568 38.7734 80.2943 38.7109 80.5547 38.5859C80.7214 38.5026 80.8932 38.388 81.0703 38.2422C81.2526 38.0964 81.4245 37.8672 81.5859 37.5547C81.7526 37.2422 81.8359 36.8646 81.8359 36.4219C81.8359 36.0781 81.7812 35.7526 81.6719 35.4453C81.5625 35.1328 81.4036 34.8568 81.1953 34.6172C80.987 34.3776 80.7396 34.1901 80.4531 34.0547C80.1667 33.9193 79.8542 33.8516 79.5156 33.8516C79.2188 33.8516 78.8776 33.9089 78.4922 34.0234V38.7734ZM79.6719 39.125H78.4922V43.2734C78.4922 43.5495 78.5182 43.7812 78.5703 43.9688C78.6276 44.151 78.7786 44.3099 79.0234 44.4453C79.2682 44.5807 79.6458 44.6484 80.1562 44.6484C81.2135 44.6484 81.9661 44.2969 82.4141 43.5938C82.7214 43.1094 82.875 42.5651 82.875 41.9609C82.875 41.5234 82.7969 41.1276 82.6406 40.7734C82.4896 40.4193 82.2786 40.125 82.0078 39.8906C81.7422 39.651 81.4062 39.4635 81 39.3281C80.5938 39.1927 80.151 39.125 79.6719 39.125ZM88.9297 33.4922V33.625C88.5859 33.625 88.2943 33.7214 88.0547 33.9141C87.8151 34.1068 87.6953 34.4271 87.6953 34.875V43.6094C87.6953 44.0521 87.8229 44.375 88.0781 44.5781C88.3333 44.776 88.6172 44.875 88.9297 44.875V45H85.2812V44.875C85.6146 44.875 85.901 44.7786 86.1406 44.5859C86.3854 44.388 86.5078 44.0625 86.5078 43.6094V34.875C86.5078 34.3958 86.3854 34.0677 86.1406 33.8906C85.901 33.7135 85.6146 33.625 85.2812 33.625V33.4922H88.9297ZM90.0781 33.625V33.4922H96.9375V35.3047H96.8281C96.8281 34.3359 96.1823 33.8516 94.8906 33.8516H92.4922V39.0781H94.6016C95.0182 39.0781 95.3906 39.0104 95.7188 38.875C96.0469 38.7396 96.2344 38.4297 96.2812 37.9453H96.3984V40.5547H96.2812C96.2344 40.2578 96.1458 40.0312 96.0156 39.875C95.8854 39.7135 95.7552 39.6068 95.625 39.5547C95.5 39.5026 95.388 39.4766 95.2891 39.4766C95.1016 39.4453 94.9062 39.4297 94.7031 39.4297H92.4922V43.5156C92.4922 43.8229 92.5495 44.0885 92.6641 44.3125C92.7839 44.5365 93.0573 44.6484 93.4844 44.6484H95.1953C95.6068 44.6484 95.9453 44.5885 96.2109 44.4688C96.4766 44.349 96.6849 44.1823 96.8359 43.9688C96.9922 43.7552 97.1224 43.4974 97.2266 43.1953H97.3359L96.9375 45H90.0781V44.875H90.2344C90.4792 44.875 90.7188 44.776 90.9531 44.5781C91.1875 44.3802 91.3047 44.0573 91.3047 43.6094V34.9375C91.3047 34.5833 91.224 34.276 91.0625 34.0156C90.9062 33.7552 90.6302 33.625 90.2344 33.625H90.0781ZM104.164 35.7031H104.039C103.966 35.1458 103.721 34.6589 103.305 34.2422C102.893 33.8203 102.349 33.6094 101.672 33.6094C101.229 33.6094 100.836 33.7135 100.492 33.9219C100.148 34.1302 99.8828 34.4141 99.6953 34.7734C99.5078 35.1328 99.4141 35.5443 99.4141 36.0078C99.4141 36.3672 99.4688 36.6875 99.5781 36.9688C99.6927 37.2448 99.8594 37.4896 100.078 37.7031C100.297 37.9167 100.555 38.1172 100.852 38.3047C101.148 38.487 101.549 38.7188 102.055 39C102.898 39.4635 103.555 39.9271 104.023 40.3906C104.492 40.849 104.727 41.4792 104.727 42.2812C104.727 42.7708 104.599 43.2448 104.344 43.7031C104.094 44.1562 103.714 44.5286 103.203 44.8203C102.693 45.112 102.06 45.2578 101.305 45.2578C100.831 45.2578 100.411 45.2057 100.047 45.1016C99.6823 45.0026 99.3125 44.862 98.9375 44.6797C98.7812 44.6276 98.6745 44.6016 98.6172 44.6016C98.5078 44.6016 98.4349 44.6406 98.3984 44.7188C98.3672 44.7969 98.3229 44.9661 98.2656 45.2266H98.1328V42.3438H98.2656C98.4531 43.1875 98.8177 43.8255 99.3594 44.2578C99.901 44.6901 100.56 44.9062 101.336 44.9062C101.919 44.9062 102.385 44.7969 102.734 44.5781C103.089 44.3594 103.333 44.0938 103.469 43.7812C103.604 43.4688 103.672 43.1562 103.672 42.8438C103.672 42.1979 103.474 41.6719 103.078 41.2656C102.688 40.8542 102.091 40.4349 101.289 40.0078C100.737 39.7057 100.328 39.4714 100.062 39.3047C99.7969 39.138 99.526 38.9219 99.25 38.6562C98.9792 38.3906 98.763 38.0781 98.6016 37.7188C98.4401 37.3542 98.3594 36.9375 98.3594 36.4688C98.3594 35.9271 98.5026 35.4089 98.7891 34.9141C99.0755 34.4193 99.4818 34.0234 100.008 33.7266C100.534 33.4245 101.13 33.2734 101.797 33.2734C102.302 33.2734 102.82 33.3594 103.352 33.5312C103.435 33.5729 103.547 33.5938 103.688 33.5938C103.859 33.5938 103.977 33.4766 104.039 33.2422H104.164V35.7031Z" fill="black"/>
</svg>
