<svg width="1444" height="818" viewBox="0 0 1444 818" fill="none" xmlns="http://www.w3.org/2000/svg">
<mask id="path-1-inside-1_152_105" fill="white">
<path d="M236.876 0C245.712 0.000193056 252.876 7.16356 252.876 16V36H1444V818H0V36H150.521V16C150.521 7.16344 157.685 0 166.521 0H236.876Z"/>
</mask>
<path d="M236.876 0C245.712 0.000193056 252.876 7.16356 252.876 16V36H1444V818H0V36H150.521V16C150.521 7.16344 157.685 0 166.521 0H236.876Z" fill="#4D0012"/>
<path d="M236.876 0L236.876 -1H236.876V0ZM252.876 36H251.876V37H252.876V36ZM1444 36H1445V35H1444V36ZM1444 818V819H1445V818H1444ZM0 818H-1V819H0V818ZM0 36V35H-1V36H0ZM150.521 36V37H151.521V36H150.521ZM236.876 0L236.876 1C245.16 1.00018 251.876 7.71587 251.876 16H252.876H253.876C253.876 6.61126 246.265 -0.999795 236.876 -1L236.876 0ZM252.876 16H251.876V36H252.876H253.876V16H252.876ZM252.876 36V37H1444V36V35H252.876V36ZM1444 36H1443V818H1444H1445V36H1444ZM1444 818V817H0V818V819H1444V818ZM0 818H1V36H0H-1V818H0ZM0 36V37H150.521V36V35H0V36ZM150.521 36H151.521V16H150.521H149.521V36H150.521ZM150.521 16H151.521C151.521 7.71573 158.237 1 166.521 1V0V-1C157.133 -1 149.521 6.61116 149.521 16H150.521ZM166.521 0V1H236.876V0V-1H166.521V0Z" fill="black" mask="url(#path-1-inside-1_152_105)"/>
<path d="M169.449 17.4717H169.347C169.301 16.8623 169.123 16.4688 168.814 16.291C168.505 16.109 168.124 16.0181 167.671 16.0181H165.812V23.8701C165.812 24.5345 166.15 24.8773 166.827 24.8984V25H163.85V24.8984C164.129 24.89 164.364 24.8096 164.555 24.6572C164.749 24.5007 164.847 24.2383 164.847 23.8701V16.0181H162.987C162.534 16.0181 162.153 16.109 161.844 16.291C161.54 16.4688 161.362 16.8623 161.311 17.4717H161.209V15.1865H161.311C161.379 15.2923 161.438 15.3706 161.489 15.4214C161.54 15.4722 161.605 15.5166 161.686 15.5547C161.766 15.5885 161.859 15.6139 161.965 15.6309C162.075 15.6436 162.204 15.6499 162.352 15.6499H168.408C168.81 15.6499 169.123 15.4954 169.347 15.1865H169.449V17.4717ZM170.242 15.7832H170.115V15.6499H173.353C173.873 15.6499 174.313 15.7303 174.673 15.8911C175.037 16.0519 175.318 16.2572 175.517 16.5068C175.72 16.7523 175.864 17.0125 175.949 17.2876C176.038 17.5627 176.082 17.8335 176.082 18.1001C176.082 18.4386 176.01 18.7645 175.866 19.0776C175.727 19.3866 175.509 19.6532 175.212 19.8774C174.92 20.1017 174.554 20.2541 174.114 20.3345V20.3599C174.673 20.6307 175.189 21.1681 175.663 21.9722L176.507 23.4004C176.888 24.0394 177.193 24.4435 177.421 24.6128C177.654 24.7821 177.883 24.8773 178.107 24.8984V25H176.406C176.334 24.9069 176.266 24.818 176.203 24.7334C176.139 24.6445 176.071 24.5514 176 24.4541C175.957 24.3906 175.894 24.2954 175.809 24.1685C175.729 24.0373 175.68 23.9632 175.663 23.9463L174.546 22.0991C174.322 21.7225 174.091 21.4178 173.854 21.1851C173.621 20.9481 173.403 20.7788 173.2 20.6772C172.997 20.5757 172.813 20.5122 172.648 20.4868C172.487 20.4614 172.297 20.4487 172.077 20.4487V23.8701C172.077 24.5345 172.415 24.8773 173.092 24.8984V25H170.115V24.8984C170.301 24.89 170.466 24.8561 170.61 24.7969C170.754 24.7334 170.873 24.6276 170.966 24.4795C171.063 24.3271 171.112 24.124 171.112 23.8701V16.7988C171.112 16.4264 171.021 16.1641 170.839 16.0117C170.657 15.8594 170.458 15.7832 170.242 15.7832ZM172.077 20.2012H172.61C173.168 20.2012 173.625 20.1208 173.981 19.96C174.341 19.7992 174.601 19.5706 174.762 19.2744C174.923 18.974 175.003 18.6079 175.003 18.1763C175.003 17.8166 174.931 17.4653 174.787 17.1226C174.643 16.7756 174.398 16.4857 174.051 16.2529C173.708 16.016 173.245 15.8975 172.661 15.8975C172.424 15.8975 172.229 15.9165 172.077 15.9546V20.2012ZM178.659 15.7578V15.6499H184.232V17.1226H184.144C184.144 16.3354 183.619 15.9419 182.569 15.9419H180.621V20.1885H182.334C182.673 20.1885 182.976 20.1335 183.242 20.0234C183.509 19.9134 183.661 19.6616 183.699 19.2681H183.794V21.3882H183.699C183.661 21.147 183.589 20.9629 183.483 20.8359C183.378 20.7048 183.272 20.618 183.166 20.5757C183.064 20.5334 182.973 20.5122 182.893 20.5122C182.741 20.4868 182.582 20.4741 182.417 20.4741H180.621V23.7939C180.621 24.0436 180.667 24.2594 180.76 24.4414C180.858 24.6234 181.08 24.7144 181.427 24.7144H182.817C183.151 24.7144 183.426 24.6657 183.642 24.5684C183.858 24.471 184.027 24.3356 184.15 24.1621C184.277 23.9886 184.383 23.7791 184.467 23.5337H184.556L184.232 25H178.659V24.8984H178.786C178.985 24.8984 179.18 24.818 179.37 24.6572C179.561 24.4964 179.656 24.234 179.656 23.8701V16.8242C179.656 16.5365 179.59 16.2868 179.459 16.0752C179.332 15.8636 179.108 15.7578 178.786 15.7578H178.659ZM185.286 15.7578V15.6499H190.859V17.1226H190.771C190.771 16.3354 190.246 15.9419 189.196 15.9419H187.248V20.1885H188.961C189.3 20.1885 189.603 20.1335 189.869 20.0234C190.136 19.9134 190.288 19.6616 190.326 19.2681H190.421V21.3882H190.326C190.288 21.147 190.216 20.9629 190.11 20.8359C190.005 20.7048 189.899 20.618 189.793 20.5757C189.691 20.5334 189.6 20.5122 189.52 20.5122C189.368 20.4868 189.209 20.4741 189.044 20.4741H187.248V23.7939C187.248 24.0436 187.294 24.2594 187.387 24.4414C187.485 24.6234 187.707 24.7144 188.054 24.7144H189.444C189.778 24.7144 190.053 24.6657 190.269 24.5684C190.485 24.471 190.654 24.3356 190.777 24.1621C190.904 23.9886 191.01 23.7791 191.094 23.5337H191.183L190.859 25H185.286V24.8984H185.413C185.612 24.8984 185.807 24.818 185.997 24.6572C186.188 24.4964 186.283 24.234 186.283 23.8701V16.8242C186.283 16.5365 186.217 16.2868 186.086 16.0752C185.959 15.8636 185.735 15.7578 185.413 15.7578H185.286ZM206.354 20.3345C206.354 21.2104 206.136 22.0251 205.7 22.7783C205.269 23.5316 204.678 24.1325 203.929 24.5811C203.18 25.0254 202.351 25.2476 201.441 25.2476C200.527 25.2476 199.689 25.0254 198.927 24.5811C198.166 24.1325 197.565 23.5295 197.125 22.772C196.689 22.0145 196.471 21.1893 196.471 20.2964C196.471 19.6108 196.6 18.9676 196.858 18.3667C197.12 17.7616 197.484 17.2347 197.95 16.7861C198.419 16.3376 198.953 15.9906 199.549 15.7451C200.15 15.4997 200.777 15.377 201.428 15.377C202.067 15.377 202.681 15.4954 203.269 15.7324C203.857 15.9652 204.384 16.3037 204.85 16.748C205.319 17.1924 205.688 17.7192 205.954 18.3286C206.221 18.938 206.354 19.6066 206.354 20.3345ZM205.237 20.3599C205.237 19.1157 205.017 18.1424 204.577 17.4399C204.137 16.7375 203.629 16.2677 203.053 16.0308C202.478 15.7896 201.936 15.6689 201.428 15.6689C201.035 15.6689 200.626 15.7345 200.203 15.8657C199.78 15.9927 199.367 16.2275 198.965 16.5703C198.568 16.9131 198.24 17.3955 197.981 18.0176C197.723 18.6396 197.594 19.4077 197.594 20.3218C197.594 21.1258 197.7 21.8283 197.912 22.4292C198.127 23.0259 198.422 23.5146 198.794 23.8955C199.171 24.2721 199.583 24.5451 200.032 24.7144C200.485 24.8794 200.954 24.9619 201.441 24.9619C201.877 24.9619 202.317 24.8857 202.761 24.7334C203.21 24.5768 203.618 24.325 203.986 23.978C204.359 23.6268 204.659 23.1528 204.888 22.5562C205.12 21.9552 205.237 21.2231 205.237 20.3599ZM207.49 15.7578V15.6499H213.102V17.0718H213C212.975 16.7798 212.867 16.5195 212.676 16.291C212.49 16.0583 212.168 15.9419 211.711 15.9419H209.464V20.1758H211.559C211.957 20.1758 212.228 20.0954 212.372 19.9346C212.515 19.7695 212.609 19.5431 212.651 19.2554H212.752V21.3755H212.651C212.625 21.1089 212.537 20.891 212.384 20.7217C212.236 20.5482 211.961 20.4614 211.559 20.4614H209.464V23.8701C209.464 24.179 209.553 24.4287 209.731 24.6191C209.909 24.8053 210.122 24.8984 210.372 24.8984H210.505V25H207.49V24.8984H207.617C207.871 24.8984 208.081 24.8032 208.246 24.6128C208.415 24.4224 208.5 24.1748 208.5 23.8701V16.7988C208.5 16.3968 208.409 16.1239 208.227 15.98C208.045 15.8319 207.841 15.7578 207.617 15.7578H207.49ZM218.497 24.8984H218.624C218.853 24.8984 219.054 24.8096 219.227 24.6318C219.405 24.4499 219.494 24.196 219.494 23.8701V16.8115C219.494 16.4222 219.394 16.1514 219.195 15.999C219.001 15.8467 218.768 15.7663 218.497 15.7578V15.6499H221.487V15.7578C221.224 15.7663 220.992 15.8446 220.789 15.9927C220.585 16.1408 220.484 16.4137 220.484 16.8115V23.6353C220.484 24.0415 220.585 24.3229 220.789 24.4795C220.992 24.6361 221.324 24.7144 221.785 24.7144H222.591C222.943 24.7144 223.222 24.672 223.429 24.5874C223.641 24.5028 223.808 24.3737 223.931 24.2002C224.053 24.0267 224.178 23.7812 224.305 23.4639H224.413L224.058 25H218.497V24.8984ZM227.961 15.6499V15.7578C227.682 15.7578 227.445 15.8361 227.25 15.9927C227.056 16.1493 226.958 16.4095 226.958 16.7734V23.8701C226.958 24.2298 227.062 24.4922 227.27 24.6572C227.477 24.818 227.708 24.8984 227.961 24.8984V25H224.997V24.8984C225.268 24.8984 225.501 24.8201 225.695 24.6636C225.894 24.5028 225.994 24.2383 225.994 23.8701V16.7734C225.994 16.3841 225.894 16.1175 225.695 15.9736C225.501 15.8298 225.268 15.7578 224.997 15.7578V15.6499H227.961ZM228.882 15.7578V15.6499H234.493V17.0718H234.392C234.366 16.7798 234.258 16.5195 234.068 16.291C233.882 16.0583 233.56 15.9419 233.103 15.9419H230.856V20.1758H232.951C233.348 20.1758 233.619 20.0954 233.763 19.9346C233.907 19.7695 234 19.5431 234.042 19.2554H234.144V21.3755H234.042C234.017 21.1089 233.928 20.891 233.776 20.7217C233.628 20.5482 233.353 20.4614 232.951 20.4614H230.856V23.8701C230.856 24.179 230.945 24.4287 231.123 24.6191C231.3 24.8053 231.514 24.8984 231.764 24.8984H231.897V25H228.882V24.8984H229.009C229.263 24.8984 229.472 24.8032 229.637 24.6128C229.806 24.4224 229.891 24.1748 229.891 23.8701V16.7988C229.891 16.3968 229.8 16.1239 229.618 15.98C229.436 15.8319 229.233 15.7578 229.009 15.7578H228.882ZM235.521 15.7578V15.6499H241.095V17.1226H241.006C241.006 16.3354 240.481 15.9419 239.432 15.9419H237.483V20.1885H239.197C239.535 20.1885 239.838 20.1335 240.104 20.0234C240.371 19.9134 240.523 19.6616 240.562 19.2681H240.657V21.3882H240.562C240.523 21.147 240.451 20.9629 240.346 20.8359C240.24 20.7048 240.134 20.618 240.028 20.5757C239.927 20.5334 239.836 20.5122 239.755 20.5122C239.603 20.4868 239.444 20.4741 239.279 20.4741H237.483V23.7939C237.483 24.0436 237.529 24.2594 237.623 24.4414C237.72 24.6234 237.942 24.7144 238.289 24.7144H239.679C240.014 24.7144 240.289 24.6657 240.504 24.5684C240.72 24.471 240.889 24.3356 241.012 24.1621C241.139 23.9886 241.245 23.7791 241.33 23.5337H241.418L241.095 25H235.521V24.8984H235.648C235.847 24.8984 236.042 24.818 236.232 24.6572C236.423 24.4964 236.518 24.234 236.518 23.8701V16.8242C236.518 16.5365 236.452 16.2868 236.321 16.0752C236.194 15.8636 235.97 15.7578 235.648 15.7578H235.521Z" fill="white"/>
</svg>
