<svg width="1444" height="887" viewBox="0 0 1444 887" fill="none" xmlns="http://www.w3.org/2000/svg">
<mask id="path-1-inside-1_152_107" fill="white">
<path d="M145 0C153.837 0 161 7.16344 161 16V36H1444V887H0V36H59V16C59 7.16344 66.1634 3.06022e-07 75 0H145Z"/>
</mask>
<path d="M145 0C153.837 0 161 7.16344 161 16V36H1444V887H0V36H59V16C59 7.16344 66.1634 3.06022e-07 75 0H145Z" fill="#4D0012"/>
<path d="M161 36H160V37H161V36ZM1444 36H1445V35H1444V36ZM1444 887V888H1445V887H1444ZM0 887H-1V888H0V887ZM0 36V35H-1V36H0ZM59 36V37H60V36H59ZM75 0L75 -1L75 -1L75 0ZM145 0V1C153.284 1 160 7.71573 160 16H161H162C162 6.61116 154.389 -1 145 -1V0ZM161 16H160V36H161H162V16H161ZM161 36V37H1444V36V35H161V36ZM1444 36H1443V887H1444H1445V36H1444ZM1444 887V886H0V887V888H1444V887ZM0 887H1V36H0H-1V887H0ZM0 36V37H59V36V35H0V36ZM59 36H60V16H59H58V36H59ZM59 16H60C60 7.71573 66.7157 1 75 1L75 0L75 -1C65.6112 -1 58 6.61116 58 16H59ZM75 0V1H145V0V-1H75V0Z" fill="black" mask="url(#path-1-inside-1_152_107)"/>
<path d="M70.9058 18.7446H70.7979C70.7174 18.2876 70.5016 17.9004 70.1504 17.583C69.8034 17.2656 69.4035 17.035 68.9507 16.8911C68.4979 16.743 68.0747 16.6689 67.6812 16.6689C67.1437 16.6689 66.638 16.7832 66.1641 17.0117C65.6943 17.236 65.2881 17.5555 64.9453 17.9702C64.6025 18.3807 64.3359 18.8758 64.1455 19.4556C63.9551 20.0311 63.8599 20.6574 63.8599 21.3345C63.8599 21.9904 63.9508 22.5998 64.1328 23.1626C64.319 23.7212 64.5877 24.2078 64.939 24.6226C65.2944 25.033 65.7049 25.3441 66.1704 25.5557C66.6359 25.7673 67.1522 25.873 67.7192 25.873C68.1932 25.873 68.7137 25.7778 69.2808 25.5874C69.8478 25.3927 70.3599 25.0711 70.8169 24.6226V24.9844C70.2541 25.4202 69.7378 25.7397 69.2681 25.9429C68.8026 26.146 68.2207 26.2476 67.5225 26.2476C66.7861 26.2476 66.1133 26.1143 65.5039 25.8477C64.8988 25.5768 64.3867 25.2129 63.9678 24.7559C63.5488 24.2988 63.2314 23.7847 63.0156 23.2134C62.7998 22.6421 62.6919 22.0539 62.6919 21.4487C62.6919 20.5389 62.9162 19.6947 63.3647 18.916C63.8133 18.1331 64.4206 17.5153 65.1865 17.0625C65.9525 16.6055 66.784 16.377 67.6812 16.377C68.2355 16.377 68.8258 16.4595 69.4521 16.6245L70.1123 16.8086C70.2393 16.834 70.3472 16.8467 70.436 16.8467C70.6011 16.8467 70.7111 16.8234 70.7661 16.7769C70.8211 16.7261 70.8634 16.6372 70.8931 16.5103H70.9946L70.9058 18.7446ZM81.9126 21.3345C81.9126 22.2104 81.6947 23.0251 81.2588 23.7783C80.8271 24.5316 80.2368 25.1325 79.4878 25.5811C78.7388 26.0254 77.9093 26.2476 76.9995 26.2476C76.0854 26.2476 75.2476 26.0254 74.4858 25.5811C73.7241 25.1325 73.1232 24.5295 72.6831 23.772C72.2472 23.0145 72.0293 22.1893 72.0293 21.2964C72.0293 20.6108 72.1584 19.9676 72.4165 19.3667C72.6789 18.7616 73.0428 18.2347 73.5083 17.7861C73.978 17.3376 74.5112 16.9906 75.1079 16.7451C75.7088 16.4997 76.3351 16.377 76.9868 16.377C77.6258 16.377 78.2394 16.4954 78.8276 16.7324C79.4159 16.9652 79.9427 17.3037 80.4082 17.748C80.8779 18.1924 81.2461 18.7192 81.5127 19.3286C81.7793 19.938 81.9126 20.6066 81.9126 21.3345ZM80.7954 21.3599C80.7954 20.1157 80.5754 19.1424 80.1353 18.4399C79.6951 17.7375 79.1873 17.2677 78.6118 17.0308C78.0363 16.7896 77.4946 16.6689 76.9868 16.6689C76.5933 16.6689 76.1849 16.7345 75.7617 16.8657C75.3385 16.9927 74.9259 17.2275 74.5239 17.5703C74.1261 17.9131 73.7982 18.3955 73.54 19.0176C73.2819 19.6396 73.1528 20.4077 73.1528 21.3218C73.1528 22.1258 73.2586 22.8283 73.4702 23.4292C73.686 24.0259 73.9801 24.5146 74.3525 24.8955C74.7292 25.2721 75.1418 25.5451 75.5903 25.7144C76.0431 25.8794 76.5129 25.9619 76.9995 25.9619C77.4354 25.9619 77.8755 25.8857 78.3198 25.7334C78.7684 25.5768 79.1768 25.325 79.5449 24.978C79.9173 24.6268 80.2178 24.1528 80.4463 23.5562C80.679 22.9552 80.7954 22.2231 80.7954 21.3599ZM92.7544 16.6499V16.7578C92.5174 16.7874 92.3291 16.834 92.1895 16.8975C92.054 16.9567 91.9482 17.0773 91.8721 17.2593C91.7959 17.437 91.7578 17.6951 91.7578 18.0337V26.2349H91.6943L84.5151 18.2241V23.9751C84.5151 24.4533 84.5342 24.8088 84.5723 25.0415C84.6104 25.2743 84.6654 25.4414 84.7373 25.543C84.8939 25.763 85.1668 25.8815 85.5562 25.8984V26H83.2139V25.8984C83.4762 25.8857 83.6794 25.8307 83.8232 25.7334C83.9714 25.6318 84.075 25.4499 84.1343 25.1875C84.1978 24.9209 84.2295 24.521 84.2295 23.9878V17.8877L83.9185 17.5386C83.6434 17.2254 83.4233 17.0286 83.2583 16.9482C83.0933 16.8636 82.888 16.8001 82.6426 16.7578V16.6499H84.4009L91.4722 24.5718V18.5352C91.4722 18.0824 91.4531 17.7438 91.415 17.5195C91.3812 17.2952 91.286 17.1154 91.1294 16.98C90.9771 16.8446 90.7358 16.7705 90.4058 16.7578V16.6499H92.7544ZM102.085 18.7446H101.978C101.897 18.2876 101.681 17.9004 101.33 17.583C100.983 17.2656 100.583 17.035 100.13 16.8911C99.6776 16.743 99.2544 16.6689 98.8608 16.6689C98.3234 16.6689 97.8177 16.7832 97.3438 17.0117C96.874 17.236 96.4678 17.5555 96.125 17.9702C95.7822 18.3807 95.5156 18.8758 95.3252 19.4556C95.1348 20.0311 95.0396 20.6574 95.0396 21.3345C95.0396 21.9904 95.1305 22.5998 95.3125 23.1626C95.4987 23.7212 95.7674 24.2078 96.1187 24.6226C96.4741 25.033 96.8846 25.3441 97.3501 25.5557C97.8156 25.7673 98.3319 25.873 98.8989 25.873C99.3729 25.873 99.8934 25.7778 100.46 25.5874C101.028 25.3927 101.54 25.0711 101.997 24.6226V24.9844C101.434 25.4202 100.917 25.7397 100.448 25.9429C99.9823 26.146 99.4004 26.2476 98.7021 26.2476C97.9658 26.2476 97.293 26.1143 96.6836 25.8477C96.0785 25.5768 95.5664 25.2129 95.1475 24.7559C94.7285 24.2988 94.4111 23.7847 94.1953 23.2134C93.9795 22.6421 93.8716 22.0539 93.8716 21.4487C93.8716 20.5389 94.0959 19.6947 94.5444 18.916C94.993 18.1331 95.6003 17.5153 96.3662 17.0625C97.1322 16.6055 97.9637 16.377 98.8608 16.377C99.4152 16.377 100.006 16.4595 100.632 16.6245L101.292 16.8086C101.419 16.834 101.527 16.8467 101.616 16.8467C101.781 16.8467 101.891 16.8234 101.946 16.7769C102.001 16.7261 102.043 16.6372 102.073 16.5103H102.174L102.085 18.7446ZM105.983 16.6499V16.7578C105.704 16.7578 105.467 16.8361 105.272 16.9927C105.077 17.1493 104.98 17.4095 104.98 17.7734V24.8701C104.98 25.2298 105.084 25.4922 105.291 25.6572C105.498 25.818 105.729 25.8984 105.983 25.8984V26H103.019V25.8984C103.289 25.8984 103.522 25.8201 103.717 25.6636C103.916 25.5028 104.015 25.2383 104.015 24.8701V17.7734C104.015 17.3841 103.916 17.1175 103.717 16.9736C103.522 16.8298 103.289 16.7578 103.019 16.7578V16.6499H105.983ZM106.916 16.7578V16.6499H112.489V18.1226H112.4C112.4 17.3354 111.876 16.9419 110.826 16.9419H108.877V21.1885H110.591C110.93 21.1885 111.232 21.1335 111.499 21.0234C111.766 20.9134 111.918 20.6616 111.956 20.2681H112.051V22.3882H111.956C111.918 22.147 111.846 21.9629 111.74 21.8359C111.634 21.7048 111.529 21.618 111.423 21.5757C111.321 21.5334 111.23 21.5122 111.15 21.5122C110.998 21.4868 110.839 21.4741 110.674 21.4741H108.877V24.7939C108.877 25.0436 108.924 25.2594 109.017 25.4414C109.114 25.6234 109.337 25.7144 109.684 25.7144H111.074C111.408 25.7144 111.683 25.6657 111.899 25.5684C112.115 25.471 112.284 25.3356 112.407 25.1621C112.534 24.9886 112.639 24.7791 112.724 24.5337H112.813L112.489 26H106.916V25.8984H107.043C107.242 25.8984 107.437 25.818 107.627 25.6572C107.817 25.4964 107.913 25.234 107.913 24.8701V17.8242C107.913 17.5365 107.847 17.2868 107.716 17.0752C107.589 16.8636 107.365 16.7578 107.043 16.7578H106.916ZM113.657 16.7832H113.53V16.6499H116.768C117.288 16.6499 117.728 16.7303 118.088 16.8911C118.452 17.0519 118.733 17.2572 118.932 17.5068C119.135 17.7523 119.279 18.0125 119.364 18.2876C119.453 18.5627 119.497 18.8335 119.497 19.1001C119.497 19.4386 119.425 19.7645 119.281 20.0776C119.142 20.3866 118.924 20.6532 118.627 20.8774C118.335 21.1017 117.969 21.2541 117.529 21.3345V21.3599C118.088 21.6307 118.604 22.1681 119.078 22.9722L119.922 24.4004C120.303 25.0394 120.608 25.4435 120.836 25.6128C121.069 25.7821 121.298 25.8773 121.522 25.8984V26H119.821C119.749 25.9069 119.681 25.818 119.618 25.7334C119.554 25.6445 119.486 25.5514 119.415 25.4541C119.372 25.3906 119.309 25.2954 119.224 25.1685C119.144 25.0373 119.095 24.9632 119.078 24.9463L117.961 23.0991C117.737 22.7225 117.506 22.4178 117.269 22.1851C117.036 21.9481 116.818 21.7788 116.615 21.6772C116.412 21.5757 116.228 21.5122 116.063 21.4868C115.902 21.4614 115.712 21.4487 115.492 21.4487V24.8701C115.492 25.5345 115.83 25.8773 116.507 25.8984V26H113.53V25.8984C113.716 25.89 113.882 25.8561 114.025 25.7969C114.169 25.7334 114.288 25.6276 114.381 25.4795C114.478 25.3271 114.527 25.124 114.527 24.8701V17.7988C114.527 17.4264 114.436 17.1641 114.254 17.0117C114.072 16.8594 113.873 16.7832 113.657 16.7832ZM115.492 21.2012H116.025C116.583 21.2012 117.041 21.1208 117.396 20.96C117.756 20.7992 118.016 20.5706 118.177 20.2744C118.338 19.974 118.418 19.6079 118.418 19.1763C118.418 18.8166 118.346 18.4653 118.202 18.1226C118.058 17.7756 117.813 17.4857 117.466 17.2529C117.123 17.016 116.66 16.8975 116.076 16.8975C115.839 16.8975 115.644 16.9165 115.492 16.9546V21.2012ZM129.812 18.5923H129.71C129.575 17.9829 129.215 17.5111 128.631 17.1768C128.047 16.8382 127.381 16.6689 126.632 16.6689C126.243 16.6689 125.824 16.7303 125.375 16.853C124.931 16.9715 124.497 17.1895 124.074 17.5068C123.651 17.8242 123.299 18.2855 123.02 18.8906C122.741 19.4915 122.601 20.249 122.601 21.1631C122.601 22.6188 122.94 23.7826 123.617 24.6543C124.298 25.526 125.39 25.9619 126.892 25.9619C127.485 25.9619 127.92 25.9217 128.2 25.8413C128.479 25.7609 128.657 25.6509 128.733 25.5112C128.813 25.3716 128.854 25.1833 128.854 24.9463V23.2324C128.854 22.8262 128.765 22.5575 128.587 22.4263C128.413 22.2951 128.151 22.2083 127.8 22.166V22.0581H130.84V22.166C130.561 22.1956 130.345 22.257 130.193 22.3501C130.041 22.439 129.939 22.5553 129.888 22.6992C129.837 22.8431 129.812 23.0335 129.812 23.2705V25.873C128.881 26.1227 127.92 26.2476 126.93 26.2476C126.418 26.2476 125.912 26.2052 125.413 26.1206C124.914 26.036 124.393 25.8477 123.852 25.5557C123.31 25.2637 122.832 24.832 122.417 24.2607C121.795 23.4017 121.484 22.4305 121.484 21.3472C121.484 20.7166 121.6 20.103 121.833 19.5063C122.07 18.9097 122.409 18.3765 122.849 17.9067C123.293 17.4328 123.835 17.0604 124.474 16.7896C125.113 16.5145 125.821 16.377 126.6 16.377C126.901 16.377 127.195 16.3981 127.482 16.4404C127.77 16.4785 128.2 16.5589 128.771 16.6816C128.995 16.7324 129.156 16.7578 129.253 16.7578C129.461 16.7578 129.613 16.6541 129.71 16.4468H129.812V18.5923ZM131.405 16.7578V16.6499H136.979V18.1226H136.89C136.89 17.3354 136.365 16.9419 135.315 16.9419H133.367V21.1885H135.081C135.419 21.1885 135.722 21.1335 135.988 21.0234C136.255 20.9134 136.407 20.6616 136.445 20.2681H136.541V22.3882H136.445C136.407 22.147 136.335 21.9629 136.229 21.8359C136.124 21.7048 136.018 21.618 135.912 21.5757C135.811 21.5334 135.72 21.5122 135.639 21.5122C135.487 21.4868 135.328 21.4741 135.163 21.4741H133.367V24.7939C133.367 25.0436 133.413 25.2594 133.506 25.4414C133.604 25.6234 133.826 25.7144 134.173 25.7144H135.563C135.897 25.7144 136.172 25.6657 136.388 25.5684C136.604 25.471 136.773 25.3356 136.896 25.1621C137.023 24.9886 137.129 24.7791 137.213 24.5337H137.302L136.979 26H131.405V25.8984H131.532C131.731 25.8984 131.926 25.818 132.116 25.6572C132.307 25.4964 132.402 25.234 132.402 24.8701V17.8242C132.402 17.5365 132.336 17.2868 132.205 17.0752C132.078 16.8636 131.854 16.7578 131.532 16.7578H131.405ZM138.146 16.7832H138.02V16.6499H141.257C141.777 16.6499 142.217 16.7303 142.577 16.8911C142.941 17.0519 143.222 17.2572 143.421 17.5068C143.625 17.7523 143.768 18.0125 143.853 18.2876C143.942 18.5627 143.986 18.8335 143.986 19.1001C143.986 19.4386 143.914 19.7645 143.771 20.0776C143.631 20.3866 143.413 20.6532 143.117 20.8774C142.825 21.1017 142.459 21.2541 142.019 21.3345V21.3599C142.577 21.6307 143.093 22.1681 143.567 22.9722L144.412 24.4004C144.792 25.0394 145.097 25.4435 145.326 25.6128C145.558 25.7821 145.787 25.8773 146.011 25.8984V26H144.31C144.238 25.9069 144.17 25.818 144.107 25.7334C144.043 25.6445 143.976 25.5514 143.904 25.4541C143.861 25.3906 143.798 25.2954 143.713 25.1685C143.633 25.0373 143.584 24.9632 143.567 24.9463L142.45 23.0991C142.226 22.7225 141.995 22.4178 141.758 22.1851C141.526 21.9481 141.308 21.7788 141.104 21.6772C140.901 21.5757 140.717 21.5122 140.552 21.4868C140.391 21.4614 140.201 21.4487 139.981 21.4487V24.8701C139.981 25.5345 140.319 25.8773 140.997 25.8984V26H138.02V25.8984C138.206 25.89 138.371 25.8561 138.515 25.7969C138.659 25.7334 138.777 25.6276 138.87 25.4795C138.967 25.3271 139.016 25.124 139.016 24.8701V17.7988C139.016 17.4264 138.925 17.1641 138.743 17.0117C138.561 16.8594 138.362 16.7832 138.146 16.7832ZM139.981 21.2012H140.514C141.073 21.2012 141.53 21.1208 141.885 20.96C142.245 20.7992 142.505 20.5706 142.666 20.2744C142.827 19.974 142.907 19.6079 142.907 19.1763C142.907 18.8166 142.835 18.4653 142.691 18.1226C142.548 17.7756 142.302 17.4857 141.955 17.2529C141.612 17.016 141.149 16.8975 140.565 16.8975C140.328 16.8975 140.133 16.9165 139.981 16.9546V21.2012ZM149.553 16.6499V16.7578C149.274 16.7578 149.037 16.8361 148.842 16.9927C148.648 17.1493 148.55 17.4095 148.55 17.7734V24.8701C148.55 25.2298 148.654 25.4922 148.861 25.6572C149.069 25.818 149.299 25.8984 149.553 25.8984V26H146.589V25.8984C146.86 25.8984 147.092 25.8201 147.287 25.6636C147.486 25.5028 147.585 25.2383 147.585 24.8701V17.7734C147.585 17.3841 147.486 17.1175 147.287 16.9736C147.092 16.8298 146.86 16.7578 146.589 16.7578V16.6499H149.553ZM150.486 16.7578V16.6499H156.06V18.1226H155.971C155.971 17.3354 155.446 16.9419 154.396 16.9419H152.448V21.1885H154.162C154.5 21.1885 154.803 21.1335 155.069 21.0234C155.336 20.9134 155.488 20.6616 155.526 20.2681H155.622V22.3882H155.526C155.488 22.147 155.416 21.9629 155.311 21.8359C155.205 21.7048 155.099 21.618 154.993 21.5757C154.892 21.5334 154.801 21.5122 154.72 21.5122C154.568 21.4868 154.409 21.4741 154.244 21.4741H152.448V24.7939C152.448 25.0436 152.494 25.2594 152.587 25.4414C152.685 25.6234 152.907 25.7144 153.254 25.7144H154.644C154.978 25.7144 155.253 25.6657 155.469 25.5684C155.685 25.471 155.854 25.3356 155.977 25.1621C156.104 24.9886 156.21 24.7791 156.294 24.5337H156.383L156.06 26H150.486V25.8984H150.613C150.812 25.8984 151.007 25.818 151.197 25.6572C151.388 25.4964 151.483 25.234 151.483 24.8701V17.8242C151.483 17.5365 151.417 17.2868 151.286 17.0752C151.159 16.8636 150.935 16.7578 150.613 16.7578H150.486Z" fill="white"/>
</svg>
