<svg width="1440" height="295" viewBox="0 0 1440 295" fill="none" xmlns="http://www.w3.org/2000/svg">
<mask id="path-1-inside-1_416_72" fill="white">
<path fill-rule="evenodd" clip-rule="evenodd" d="M609 0C600.716 0 594 6.71573 594 15V64H0V295H1440V64H792V15C792 6.71573 785.284 0 777 0H609Z"/>
</mask>
<path fill-rule="evenodd" clip-rule="evenodd" d="M609 0C600.716 0 594 6.71573 594 15V64H0V295H1440V64H792V15C792 6.71573 785.284 0 777 0H609Z" fill="#4D0012"/>
<path d="M594 64V65H595V64H594ZM0 64V63H-1V64H0ZM0 295H-1V296H0V295ZM1440 295V296H1441V295H1440ZM1440 64H1441V63H1440V64ZM792 64H791V65H792V64ZM595 15C595 7.26801 601.268 1 609 1V-1C600.163 -1 593 6.16344 593 15H595ZM595 64V15H593V64H595ZM0 65H594V63H0V65ZM1 295V64H-1V295H1ZM1440 294H0V296H1440V294ZM1439 64V295H1441V64H1439ZM792 65H1440V63H792V65ZM791 15V64H793V15H791ZM777 1C784.732 1 791 7.26801 791 15H793C793 6.16345 785.837 -1 777 -1V1ZM609 1H777V-1H609V1Z" fill="black" mask="url(#path-1-inside-1_416_72)"/>
</svg>
