<svg width="899" height="602" viewBox="0 0 899 602" fill="none" xmlns="http://www.w3.org/2000/svg">
<mask id="path-1-inside-1_299_2307" fill="white">
<path fill-rule="evenodd" clip-rule="evenodd" d="M6.83469 335.49C0.850861 338.338 -1.69049 345.499 1.15844 351.483L26.0909 403.85L27.8104 407.462L386.752 1161.38L1234.57 757.728L873.905 0.202422L204.863 318.736L179.931 266.368C177.082 260.385 169.922 257.843 163.938 260.692L6.83469 335.49Z"/>
</mask>
<path fill-rule="evenodd" clip-rule="evenodd" d="M6.83469 335.49C0.850861 338.338 -1.69049 345.499 1.15844 351.483L26.0909 403.85L27.8104 407.462L386.752 1161.38L1234.57 757.728L873.905 0.202422L204.863 318.736L179.931 266.368C177.082 260.385 169.922 257.843 163.938 260.692L6.83469 335.49Z" fill="#D9D9D9"/>
<path d="M6.83469 335.49L7.26456 336.392L6.83469 335.49ZM26.0909 403.85L25.188 404.28L26.0909 403.85ZM27.8104 407.462L28.7133 407.032L27.8104 407.462ZM386.752 1161.38L385.849 1161.81L386.279 1162.71L387.182 1162.28L386.752 1161.38ZM1234.57 757.728L1235 758.631L1235.9 758.201L1235.47 757.298L1234.57 757.728ZM873.905 0.202422L874.808 -0.227448L874.378 -1.13034L873.475 -0.700468L873.905 0.202422ZM204.863 318.736L203.96 319.166L204.39 320.069L205.293 319.639L204.863 318.736ZM179.931 266.368L179.028 266.798L179.931 266.368ZM163.938 260.692L163.508 259.789L163.938 260.692ZM2.06133 351.053C-0.550184 345.568 1.77938 339.004 7.26456 336.392L6.40482 334.587C-0.0776615 337.673 -2.83079 345.43 0.255549 351.913L2.06133 351.053ZM26.9938 403.42L2.06133 351.053L0.255549 351.913L25.188 404.28L26.9938 403.42ZM28.7133 407.032L26.9938 403.42L25.188 404.28L26.9075 407.892L28.7133 407.032ZM387.655 1160.95L28.7133 407.032L26.9075 407.892L385.849 1161.81L387.655 1160.95ZM1234.14 756.825L386.322 1160.47L387.182 1162.28L1235 758.631L1234.14 756.825ZM873.002 0.632292L1233.66 758.158L1235.47 757.298L874.808 -0.227448L873.002 0.632292ZM205.293 319.639L874.335 1.10531L873.475 -0.700468L204.433 317.833L205.293 319.639ZM179.028 266.798L203.96 319.166L205.766 318.306L180.834 265.939L179.028 266.798ZM164.368 261.595C169.853 258.984 176.416 261.313 179.028 266.798L180.834 265.939C177.747 259.456 169.99 256.703 163.508 259.789L164.368 261.595ZM7.26456 336.392L164.368 261.595L163.508 259.789L6.40482 334.587L7.26456 336.392Z" fill="black" mask="url(#path-1-inside-1_299_2307)"/>
</svg>
