<svg width="1444" height="753" viewBox="0 0 1444 753" fill="none" xmlns="http://www.w3.org/2000/svg">
<path d="M259 1.31348H329C337.56 1.31348 344.5 8.25306 344.5 16.8135V37.5H1443.5V752.5H0.5V37.5H243.5V16.8135C243.5 8.38693 250.224 1.53072 258.6 1.31836L259 1.31348Z" fill="#4D0012" stroke="black"/>
<path d="M272.482 19.7578V19.6499H276.082C276.585 19.6499 277.049 19.6943 277.472 19.7832C277.899 19.8678 278.28 19.9821 278.614 20.126C278.953 20.2699 279.245 20.4285 279.49 20.6021C279.736 20.7713 279.943 20.9448 280.112 21.1226C280.409 21.4188 280.66 21.7489 280.868 22.1128C281.075 22.4725 281.229 22.8534 281.331 23.2554C281.437 23.6574 281.49 24.0721 281.49 24.4995C281.49 24.9269 281.439 25.3332 281.337 25.7183C281.236 26.1034 281.09 26.4609 280.899 26.791C280.709 27.1169 280.48 27.4131 280.214 27.6797C279.951 27.9463 279.645 28.1875 279.293 28.4033C278.993 28.5811 278.648 28.7249 278.259 28.835C277.869 28.945 277.343 29 276.678 29H272.482V28.8984H272.609C272.901 28.8984 273.119 28.7884 273.263 28.5684C273.407 28.3483 273.479 28.1156 273.479 27.8701V20.8115C273.479 20.5745 273.439 20.3757 273.358 20.2148C273.282 20.054 273.179 19.9377 273.047 19.8657C272.916 19.7938 272.77 19.7578 272.609 19.7578H272.482ZM274.444 20.0942V27.502C274.444 27.8659 274.501 28.1346 274.615 28.3081C274.734 28.4774 274.916 28.5874 275.161 28.6382C275.407 28.689 275.766 28.7144 276.24 28.7144C276.917 28.7144 277.489 28.6488 277.954 28.5176C278.42 28.3822 278.87 28.0838 279.306 27.6226C279.628 27.2798 279.886 26.8608 280.081 26.3657C280.275 25.8706 280.373 25.2718 280.373 24.5693C280.373 24.015 280.294 23.467 280.138 22.9253C279.981 22.3794 279.742 21.8949 279.42 21.4717C279.061 20.9935 278.597 20.619 278.03 20.3481C277.467 20.0773 276.788 19.9419 275.993 19.9419C275.582 19.9419 275.066 19.9927 274.444 20.0942ZM282.613 19.7578V19.6499H288.187V21.1226H288.098C288.098 20.3354 287.573 19.9419 286.523 19.9419H284.575V24.1885H286.289C286.627 24.1885 286.93 24.1335 287.196 24.0234C287.463 23.9134 287.615 23.6616 287.653 23.2681H287.749V25.3882H287.653C287.615 25.147 287.543 24.9629 287.438 24.8359C287.332 24.7048 287.226 24.618 287.12 24.5757C287.019 24.5334 286.928 24.5122 286.847 24.5122C286.695 24.4868 286.536 24.4741 286.371 24.4741H284.575V27.7939C284.575 28.0436 284.621 28.2594 284.714 28.4414C284.812 28.6234 285.034 28.7144 285.381 28.7144H286.771C287.105 28.7144 287.38 28.6657 287.596 28.5684C287.812 28.471 287.981 28.3356 288.104 28.1621C288.231 27.9886 288.337 27.7791 288.421 27.5337H288.51L288.187 29H282.613V28.8984H282.74C282.939 28.8984 283.134 28.818 283.324 28.6572C283.515 28.4964 283.61 28.234 283.61 27.8701V20.8242C283.61 20.5365 283.544 20.2868 283.413 20.0752C283.286 19.8636 283.062 19.7578 282.74 19.7578H282.613ZM294.058 21.4463H293.957C293.897 20.9935 293.698 20.5978 293.36 20.2593C293.026 19.9165 292.583 19.7451 292.033 19.7451C291.674 19.7451 291.354 19.8298 291.075 19.999C290.795 20.1683 290.58 20.3989 290.427 20.6909C290.275 20.9829 290.199 21.3172 290.199 21.6938C290.199 21.9858 290.243 22.2461 290.332 22.4746C290.425 22.6989 290.561 22.8978 290.738 23.0713C290.916 23.2448 291.125 23.4077 291.367 23.5601C291.608 23.7082 291.934 23.8965 292.344 24.125C293.03 24.5016 293.563 24.8783 293.944 25.2549C294.325 25.6273 294.515 26.1393 294.515 26.791C294.515 27.1888 294.411 27.5739 294.204 27.9463C294.001 28.3145 293.692 28.617 293.277 28.854C292.863 29.091 292.348 29.2095 291.735 29.2095C291.35 29.2095 291.009 29.1672 290.713 29.0825C290.417 29.0021 290.116 28.8879 289.812 28.7397C289.685 28.6974 289.598 28.6763 289.551 28.6763C289.462 28.6763 289.403 28.708 289.374 28.7715C289.348 28.835 289.312 28.9725 289.266 29.1841H289.158V26.8418H289.266C289.418 27.5273 289.714 28.0457 290.154 28.397C290.594 28.7482 291.13 28.9238 291.76 28.9238C292.234 28.9238 292.613 28.835 292.896 28.6572C293.184 28.4795 293.383 28.2637 293.493 28.0098C293.603 27.7559 293.658 27.502 293.658 27.248C293.658 26.7233 293.497 26.2959 293.176 25.9658C292.858 25.6315 292.374 25.2909 291.722 24.9438C291.274 24.6984 290.941 24.508 290.726 24.3726C290.51 24.2371 290.29 24.0615 290.065 23.8457C289.845 23.6299 289.67 23.376 289.539 23.084C289.407 22.7878 289.342 22.4492 289.342 22.0684C289.342 21.6283 289.458 21.2072 289.691 20.8052C289.924 20.4032 290.254 20.0815 290.681 19.8403C291.109 19.5949 291.593 19.4722 292.135 19.4722C292.545 19.4722 292.966 19.542 293.398 19.6816C293.466 19.7155 293.557 19.7324 293.671 19.7324C293.811 19.7324 293.906 19.6372 293.957 19.4468H294.058V21.4463ZM295.347 19.7578V19.6499H300.92V21.1226H300.831C300.831 20.3354 300.306 19.9419 299.257 19.9419H297.308V24.1885H299.022C299.361 24.1885 299.663 24.1335 299.93 24.0234C300.196 23.9134 300.349 23.6616 300.387 23.2681H300.482V25.3882H300.387C300.349 25.147 300.277 24.9629 300.171 24.8359C300.065 24.7048 299.959 24.618 299.854 24.5757C299.752 24.5334 299.661 24.5122 299.581 24.5122C299.428 24.4868 299.27 24.4741 299.104 24.4741H297.308V27.7939C297.308 28.0436 297.355 28.2594 297.448 28.4414C297.545 28.6234 297.767 28.7144 298.114 28.7144H299.504C299.839 28.7144 300.114 28.6657 300.33 28.5684C300.545 28.471 300.715 28.3356 300.837 28.1621C300.964 27.9886 301.07 27.7791 301.155 27.5337H301.244L300.92 29H295.347V28.8984H295.474C295.673 28.8984 295.867 28.818 296.058 28.6572C296.248 28.4964 296.343 28.234 296.343 27.8701V20.8242C296.343 20.5365 296.278 20.2868 296.146 20.0752C296.02 19.8636 295.795 19.7578 295.474 19.7578H295.347ZM302.088 19.7832H301.961V19.6499H305.198C305.719 19.6499 306.159 19.7303 306.519 19.8911C306.882 20.0519 307.164 20.2572 307.363 20.5068C307.566 20.7523 307.71 21.0125 307.794 21.2876C307.883 21.5627 307.928 21.8335 307.928 22.1001C307.928 22.4386 307.856 22.7645 307.712 23.0776C307.572 23.3866 307.354 23.6532 307.058 23.8774C306.766 24.1017 306.4 24.2541 305.96 24.3345V24.3599C306.519 24.6307 307.035 25.1681 307.509 25.9722L308.353 27.4004C308.734 28.0394 309.039 28.4435 309.267 28.6128C309.5 28.7821 309.728 28.8773 309.953 28.8984V29H308.251C308.18 28.9069 308.112 28.818 308.048 28.7334C307.985 28.6445 307.917 28.5514 307.845 28.4541C307.803 28.3906 307.739 28.2954 307.655 28.1685C307.574 28.0373 307.526 27.9632 307.509 27.9463L306.392 26.0991C306.167 25.7225 305.937 25.4178 305.7 25.1851C305.467 24.9481 305.249 24.7788 305.046 24.6772C304.843 24.5757 304.659 24.5122 304.494 24.4868C304.333 24.4614 304.142 24.4487 303.922 24.4487V27.8701C303.922 28.5345 304.261 28.8773 304.938 28.8984V29H301.961V28.8984C302.147 28.89 302.312 28.8561 302.456 28.7969C302.6 28.7334 302.718 28.6276 302.812 28.4795C302.909 28.3271 302.958 28.124 302.958 27.8701V20.7988C302.958 20.4264 302.867 20.1641 302.685 20.0117C302.503 19.8594 302.304 19.7832 302.088 19.7832ZM303.922 24.2012H304.456C305.014 24.2012 305.471 24.1208 305.827 23.96C306.186 23.7992 306.447 23.5706 306.607 23.2744C306.768 22.974 306.849 22.6079 306.849 22.1763C306.849 21.8166 306.777 21.4653 306.633 21.1226C306.489 20.7756 306.243 20.4857 305.896 20.2529C305.554 20.016 305.09 19.8975 304.506 19.8975C304.269 19.8975 304.075 19.9165 303.922 19.9546V24.2012ZM317.671 21.4717H317.57C317.523 20.8623 317.346 20.4688 317.037 20.291C316.728 20.109 316.347 20.0181 315.894 20.0181H314.034V27.8701C314.034 28.5345 314.373 28.8773 315.05 28.8984V29H312.073V28.8984C312.352 28.89 312.587 28.8096 312.777 28.6572C312.972 28.5007 313.069 28.2383 313.069 27.8701V20.0181H311.209C310.757 20.0181 310.376 20.109 310.067 20.291C309.762 20.4688 309.584 20.8623 309.534 21.4717H309.432V19.1865H309.534C309.601 19.2923 309.661 19.3706 309.711 19.4214C309.762 19.4722 309.828 19.5166 309.908 19.5547C309.989 19.5885 310.082 19.6139 310.188 19.6309C310.298 19.6436 310.427 19.6499 310.575 19.6499H316.63C317.032 19.6499 317.346 19.4954 317.57 19.1865H317.671V21.4717Z" fill="white"/>
</svg>
