<svg width="2136" height="1719" viewBox="0 0 2136 1719" fill="none" xmlns="http://www.w3.org/2000/svg">
<rect x="407" y="403.578" width="204" height="92" rx="17" transform="rotate(-16.2759 407 403.578)" fill="#D9D9D9"/>
<path d="M430.315 424.893L430.243 424.637L437.513 422.611C438.728 422.273 439.842 422.141 440.858 422.215C441.883 422.286 442.782 422.522 443.553 422.923C444.335 423.322 444.977 423.841 445.479 424.479C445.989 425.105 446.354 425.814 446.575 426.607C446.79 427.38 446.853 428.168 446.763 428.971C446.681 429.762 446.412 430.524 445.956 431.256C445.498 431.979 444.818 432.644 443.917 433.252C443.016 433.86 441.918 434.344 440.623 434.705C440.212 434.819 439.403 434.98 438.195 435.187L440.325 442.833C440.764 444.408 441.794 444.997 443.413 444.6L443.48 444.841L436.421 446.808L436.354 446.567C437.041 446.354 437.553 446 437.891 445.506C438.236 444.999 438.29 444.319 438.053 443.466L433.381 426.699C433.238 426.187 433.039 425.783 432.783 425.486C432.528 425.19 432.27 425.002 432.01 424.923C431.757 424.831 431.486 424.788 431.195 424.793C430.915 424.796 430.722 424.801 430.616 424.809L430.315 424.893ZM435.112 424.124L438.023 434.569C438.835 434.495 439.617 434.352 440.37 434.143C441.805 433.743 442.917 433.038 443.706 432.029C444.502 431.007 444.623 429.497 444.066 427.501C443.608 425.855 442.79 424.628 441.613 423.821C440.444 423 438.966 422.839 437.18 423.337C436.488 423.529 435.799 423.792 435.112 424.124ZM447.219 420.247L446.918 420.331L446.83 420.015L454.507 417.876C455.741 417.532 456.838 417.432 457.797 417.576C458.766 417.717 459.569 418.018 460.206 418.478C460.849 418.926 461.362 419.448 461.745 420.044C462.137 420.638 462.422 421.251 462.598 421.883C462.821 422.686 462.866 423.506 462.732 424.343C462.605 425.168 462.264 425.944 461.71 426.672C461.166 427.397 460.398 428 459.408 428.481L459.425 428.541C460.928 428.815 462.508 429.748 464.163 431.341L467.108 434.17C468.433 435.434 469.423 436.191 470.077 436.441C470.74 436.689 471.345 436.763 471.891 436.665L471.958 436.906L467.924 438.03C467.692 437.857 467.473 437.691 467.266 437.532C467.057 437.363 466.835 437.187 466.6 437.004C466.458 436.882 466.244 436.698 465.96 436.453C465.683 436.195 465.518 436.051 465.467 436.022L461.597 432.38C460.817 431.635 460.069 431.065 459.353 430.67C458.644 430.262 458.016 430.005 457.467 429.898C456.918 429.791 456.44 429.762 456.032 429.811C455.634 429.857 455.174 429.953 454.652 430.098L456.912 438.211C457.351 439.787 458.381 440.376 460 439.979L460.067 440.219L453.008 442.186L452.941 441.945C453.377 441.802 453.746 441.613 454.048 441.378C454.347 441.132 454.558 440.803 454.681 440.39C454.811 439.965 454.792 439.451 454.625 438.849L449.953 422.081C449.707 421.198 449.317 420.636 448.785 420.395C448.253 420.154 447.731 420.105 447.219 420.247ZM454.488 429.511L455.753 429.159C457.077 428.79 458.108 428.297 458.844 427.681C459.591 427.062 460.057 426.348 460.243 425.54C460.426 424.721 460.374 423.8 460.089 422.776C459.852 421.924 459.449 421.138 458.881 420.421C458.311 419.693 457.537 419.168 456.561 418.845C455.591 418.509 454.414 418.535 453.03 418.92C452.468 419.077 452.019 419.251 451.683 419.442L454.488 429.511ZM492.175 419.351C492.754 421.428 492.776 423.504 492.24 425.578C491.714 427.649 490.711 429.464 489.231 431.023C487.749 432.571 485.929 433.646 483.771 434.247C481.604 434.851 479.47 434.878 477.371 434.328C475.268 433.767 473.445 432.734 471.901 431.229C470.367 429.721 469.305 427.908 468.715 425.791C468.262 424.165 468.143 422.555 468.358 420.959C468.58 419.351 469.095 417.861 469.903 416.49C470.72 415.116 471.755 413.941 473.008 412.965C474.271 411.986 475.675 411.281 477.22 410.85C478.735 410.428 480.268 410.304 481.82 410.477C483.368 410.64 484.841 411.095 486.239 411.841C487.646 412.584 488.867 413.59 489.902 414.859C490.937 416.128 491.695 417.625 492.175 419.351ZM489.543 420.15C488.721 417.199 487.556 415.037 486.049 413.662C484.541 412.287 483.026 411.509 481.505 411.327C479.981 411.135 478.617 411.207 477.413 411.543C476.48 411.803 475.555 412.228 474.638 412.819C473.718 413.399 472.895 414.229 472.168 415.307C471.452 416.383 470.993 417.743 470.792 419.389C470.59 421.035 470.792 422.941 471.396 425.109C471.927 427.015 472.642 428.611 473.541 429.896C474.447 431.168 475.467 432.133 476.602 432.79C477.744 433.434 478.902 433.809 480.078 433.914C481.26 434.006 482.429 433.891 483.583 433.57C484.616 433.282 485.61 432.811 486.563 432.156C487.523 431.488 488.325 430.621 488.968 429.555C489.619 428.476 490.019 427.154 490.166 425.588C490.321 424.009 490.113 422.197 489.543 420.15ZM501.53 426.671L496.628 409.076C496.183 407.481 495.161 406.879 493.562 407.27L493.491 407.014L500.49 405.064L500.561 405.32C499.904 405.525 499.403 405.881 499.058 406.388C498.723 406.892 498.675 407.576 498.916 408.439L503.982 426.621C504.264 427.634 504.366 428.542 504.286 429.342C504.216 430.14 504.014 430.813 503.68 431.36C503.346 431.907 502.938 432.345 502.457 432.674C501.985 433 501.479 433.239 500.937 433.39C500.325 433.56 499.756 433.616 499.232 433.557C498.717 433.495 498.255 433.369 497.845 433.181C497.449 432.999 497.027 432.765 496.579 432.479L496.684 432.272C497.707 432.722 498.725 432.806 499.738 432.523C501.113 432.14 501.853 431.42 501.959 430.364C502.065 429.307 501.922 428.076 501.53 426.671ZM502.804 404.695L502.732 404.439L515.948 400.757L516.921 404.249L516.71 404.308C516.19 402.441 514.686 401.855 512.197 402.548L507.576 403.836L510.382 413.905L514.446 412.773C515.248 412.549 515.93 412.219 516.489 411.782C517.049 411.345 517.243 410.647 517.074 409.689L517.3 409.626L518.7 414.653L518.474 414.716C518.225 414.169 517.933 413.78 517.598 413.549C517.26 413.308 516.952 413.172 516.673 413.142C516.405 413.109 516.175 413.118 515.984 413.172C515.606 413.212 515.221 413.287 514.83 413.396L510.571 414.583L512.764 422.455C512.929 423.047 513.182 423.528 513.523 423.898C513.874 424.265 514.461 424.334 515.284 424.105L518.58 423.186C519.373 422.965 519.993 422.668 520.44 422.295C520.888 421.921 521.199 421.488 521.376 420.996C521.562 420.501 521.675 419.934 521.713 419.296L521.924 419.237L522.125 422.928L508.91 426.61L508.843 426.37L509.144 426.286C509.615 426.154 510.024 425.835 510.369 425.328C510.714 424.821 510.767 424.136 510.526 423.273L505.871 406.565C505.681 405.883 505.361 405.334 504.91 404.919C504.469 404.501 503.867 404.399 503.105 404.611L502.804 404.695ZM539.864 399.446L539.608 399.517C539.115 398.487 538.348 397.711 537.305 397.191C536.273 396.667 535.172 396.385 534.003 396.343C532.832 396.291 531.779 396.395 530.846 396.655C529.572 397.01 528.448 397.615 527.475 398.47C526.51 399.312 525.758 400.338 525.219 401.548C524.677 402.748 524.372 404.098 524.304 405.598C524.232 407.089 524.42 408.637 524.868 410.242C525.301 411.798 525.919 413.182 526.723 414.397C527.533 415.598 528.492 416.575 529.599 417.326C530.713 418.065 531.892 418.531 533.135 418.725C534.379 418.919 535.673 418.829 537.018 418.454C538.141 418.141 539.313 417.571 540.532 416.745C541.748 415.909 542.749 414.808 543.537 413.443L543.776 414.3C542.729 415.706 541.716 416.805 540.736 417.597C539.767 418.386 538.454 419.011 536.798 419.472C535.052 419.959 533.369 420.087 531.748 419.858C530.134 419.615 528.679 419.091 527.384 418.284C526.089 417.477 524.996 416.467 524.107 415.255C523.218 414.043 522.573 412.72 522.174 411.285C521.573 409.127 521.547 406.977 522.096 404.835C522.642 402.682 523.674 400.816 525.191 399.236C526.705 397.646 528.526 396.555 530.653 395.962C531.968 395.596 533.422 395.402 535.016 395.379L536.703 395.379C537.021 395.356 537.285 395.315 537.496 395.256C537.887 395.147 538.133 395.019 538.233 394.872C538.33 394.715 538.371 394.477 538.358 394.156L538.598 394.089L539.864 399.446ZM560.786 392.919L560.545 392.986C560.032 391.572 559.351 390.756 558.501 390.539C557.648 390.311 556.685 390.347 555.611 390.646L551.201 391.875L556.389 410.494C556.828 412.07 557.857 412.659 559.476 412.262L559.544 412.502L552.484 414.469L552.417 414.228C553.074 414.024 553.578 413.678 553.929 413.191C554.287 412.691 554.344 412.005 554.101 411.132L548.913 392.513L544.503 393.742C543.429 394.041 542.586 394.508 541.974 395.144C541.369 395.766 541.208 396.817 541.49 398.296L541.249 398.363L539.739 392.944L539.98 392.877C540.21 393.083 540.403 393.23 540.557 393.316C540.711 393.403 540.895 393.465 541.111 393.502C541.324 393.53 541.562 393.528 541.824 393.499C542.093 393.456 542.403 393.386 542.755 393.288L557.114 389.287C558.067 389.021 558.708 388.448 559.035 387.568L559.276 387.5L560.786 392.919ZM573.804 389.227L573.563 389.294C573.123 388.26 572.39 387.453 571.364 386.874C570.345 386.282 569.183 386.167 567.879 386.531C567.026 386.769 566.324 387.18 565.773 387.766C565.223 388.352 564.864 389.042 564.695 389.835C564.527 390.628 564.567 391.471 564.816 392.364C565.009 393.056 565.286 393.644 565.648 394.127C566.017 394.597 566.469 394.98 567.006 395.274C567.542 395.568 568.146 395.815 568.819 396.017C569.488 396.209 570.385 396.44 571.51 396.711C573.384 397.151 574.897 397.692 576.049 398.333C577.198 398.965 577.988 400.053 578.419 401.598C578.682 402.542 578.69 403.523 578.445 404.543C578.206 405.551 577.674 406.472 576.847 407.308C576.02 408.144 574.879 408.765 573.424 409.17C572.511 409.424 571.675 409.549 570.917 409.544C570.161 409.549 569.373 409.477 568.553 409.327C568.224 409.311 568.004 409.318 567.894 409.348C567.683 409.407 567.564 409.522 567.535 409.692C567.517 409.859 567.523 410.209 567.552 410.741L567.296 410.813L565.749 405.258L566.005 405.187C566.819 406.712 567.864 407.746 569.139 408.288C570.415 408.83 571.8 408.893 573.296 408.476C574.419 408.163 575.259 407.702 575.814 407.093C576.379 406.482 576.708 405.838 576.801 405.164C576.894 404.489 576.857 403.85 576.689 403.248C576.342 402.004 575.678 401.097 574.698 400.527C573.724 399.944 572.35 399.456 570.576 399.064C569.35 398.778 568.436 398.546 567.835 398.368C567.234 398.189 566.596 397.918 565.922 397.554C565.257 397.188 564.673 396.702 564.169 396.096C563.662 395.481 563.283 394.721 563.032 393.818C562.741 392.774 562.739 391.699 563.025 390.592C563.311 389.485 563.881 388.504 564.735 387.65C565.587 386.786 566.655 386.174 567.939 385.817C568.912 385.545 569.957 385.433 571.073 385.479C571.256 385.514 571.483 385.494 571.753 385.419C572.085 385.327 572.247 385.038 572.242 384.553L572.483 384.486L573.804 389.227Z" fill="black"/>
<rect x="202" y="465.578" width="204" height="92" rx="17" transform="rotate(-16.2759 202 465.578)" fill="#D9D9D9"/>
<path d="M276.26 485.434L273.934 477.086C273.708 476.273 273.302 475.668 272.717 475.272C272.132 474.875 271.377 474.806 270.451 475.064L270.371 474.776L278.312 472.563L278.393 472.851C277.467 473.109 276.862 473.557 276.578 474.196C276.29 474.824 276.261 475.549 276.491 476.373L281.747 495.237C282.256 497.066 283.403 497.732 285.187 497.235L285.262 497.506L277.32 499.718L277.245 499.447C278.092 499.211 278.689 498.802 279.037 498.218C279.394 497.62 279.448 496.875 279.199 495.983L276.472 486.196L262.181 490.178L264.898 499.931C265.141 500.801 265.572 501.41 266.193 501.76C266.821 502.096 267.548 502.149 268.372 501.92L268.448 502.191L260.506 504.403L260.43 504.132C261.288 503.893 261.877 503.474 262.196 502.874C262.524 502.26 262.567 501.518 262.325 500.648L257.069 481.785C256.553 479.934 255.409 479.255 253.636 479.749L253.556 479.461L261.498 477.248L261.578 477.536C260.641 477.797 260.025 478.249 259.729 478.89C259.442 479.518 259.413 480.244 259.642 481.068L261.968 489.416L276.26 485.434ZM311.106 476.893C311.757 479.229 311.781 481.565 311.178 483.898C310.586 486.228 309.458 488.27 307.793 490.023C306.126 491.765 304.078 492.974 301.651 493.651C299.213 494.33 296.812 494.36 294.45 493.741C292.085 493.111 290.034 491.949 288.297 490.255C286.571 488.558 285.376 486.519 284.712 484.137C284.203 482.308 284.069 480.497 284.311 478.702C284.561 476.892 285.14 475.216 286.049 473.674C286.968 472.128 288.133 470.806 289.542 469.708C290.963 468.606 292.542 467.814 294.281 467.329C295.985 466.854 297.71 466.714 299.455 466.909C301.198 467.093 302.855 467.604 304.427 468.444C306.01 469.28 307.384 470.412 308.548 471.839C309.712 473.267 310.565 474.951 311.106 476.893ZM308.144 477.791C307.219 474.472 305.909 472.039 304.213 470.492C302.517 468.945 300.813 468.07 299.101 467.865C297.387 467.65 295.852 467.731 294.498 468.108C293.448 468.401 292.407 468.879 291.376 469.544C290.341 470.197 289.415 471.13 288.598 472.343C287.791 473.553 287.275 475.084 287.049 476.935C286.822 478.787 287.049 480.931 287.728 483.37C288.326 485.515 289.13 487.31 290.141 488.756C291.161 490.187 292.309 491.272 293.585 492.011C294.87 492.736 296.173 493.158 297.496 493.276C298.826 493.379 300.141 493.25 301.439 492.889C302.602 492.565 303.719 492.034 304.791 491.298C305.871 490.547 306.773 489.571 307.498 488.372C308.23 487.158 308.679 485.671 308.845 483.909C309.02 482.133 308.786 480.094 308.144 477.791ZM337.172 456.163L337.252 456.451C336.794 456.639 336.469 456.785 336.279 456.886C336.085 456.977 335.89 457.153 335.696 457.414C335.394 457.814 335.228 458.158 335.199 458.446C335.181 458.731 335.25 459.198 335.407 459.848C335.401 459.959 335.43 460.061 335.492 460.153L341.517 478.437C341.756 479.21 342.13 479.83 342.637 480.297C343.144 480.763 343.987 480.839 345.164 480.523L345.239 480.794L337.162 483.045L337.087 482.774C338.116 482.365 338.748 481.861 338.982 481.26C339.213 480.648 339.153 479.82 338.801 478.774L332.596 459.847L332.528 459.866L330.05 485.026L315.623 465.47L315.556 465.489L319.584 483.417C319.809 484.4 320.076 485.141 320.385 485.639C320.703 486.122 321.075 486.432 321.502 486.569C321.926 486.694 322.51 486.714 323.252 486.628L323.328 486.899L317.046 488.65L316.97 488.379C317.768 488.144 318.325 487.782 318.638 487.294C318.952 486.805 319.094 486.266 319.064 485.679C319.043 485.076 318.93 484.28 318.727 483.291L314.631 464.725C314.612 464.657 314.511 464.557 314.329 464.426C314.143 464.283 313.925 464.155 313.674 464.042C313.432 463.915 313.207 463.826 312.998 463.775C312.548 463.644 312.177 463.602 311.885 463.647C311.591 463.68 311.185 463.751 310.667 463.858L310.587 463.57L316.378 461.957L329.785 480.21L331.94 457.621L337.172 456.163ZM340.402 455.573L340.321 455.285L355.189 451.143L356.283 455.072L356.046 455.138C355.461 453.038 353.769 452.378 350.969 453.158L345.771 454.607L348.927 465.935L353.499 464.661C354.402 464.409 355.168 464.038 355.798 463.546C356.427 463.054 356.647 462.269 356.456 461.191L356.71 461.12L358.285 466.776L358.031 466.847C357.751 466.232 357.422 465.794 357.045 465.534C356.666 465.263 356.319 465.11 356.005 465.076C355.703 465.038 355.444 465.05 355.23 465.109C354.805 465.155 354.372 465.239 353.932 465.362L349.14 466.697L351.607 475.553C351.793 476.219 352.077 476.76 352.461 477.176C352.856 477.589 353.516 477.667 354.442 477.409L358.15 476.376C359.042 476.127 359.739 475.793 360.243 475.373C360.746 474.953 361.097 474.466 361.296 473.912C361.505 473.354 361.632 472.717 361.675 471.999L361.912 471.933L362.138 476.086L347.271 480.228L347.196 479.957L347.534 479.863C348.065 479.715 348.524 479.356 348.913 478.785C349.301 478.215 349.36 477.444 349.09 476.473L343.853 457.677C343.639 456.91 343.278 456.292 342.771 455.826C342.275 455.355 341.598 455.24 340.74 455.479L340.402 455.573Z" fill="black"/>
<mask id="path-5-inside-1_449_192" fill="white">
<path d="M179.506 473.169C188.518 470.537 197.958 475.71 200.589 484.723L214.041 530.799L1400.51 184.394L1730.63 1315.07L348.336 1718.65L21.0623 597.711C21.0484 597.665 21.0333 597.619 21.0197 597.572L4.76446 541.897C2.13312 532.884 7.30613 523.445 16.3187 520.813L179.506 473.169Z"/>
</mask>
<path d="M179.506 473.169C188.518 470.537 197.958 475.71 200.589 484.723L214.041 530.799L1400.51 184.394L1730.63 1315.07L348.336 1718.65L21.0623 597.711C21.0484 597.665 21.0333 597.619 21.0197 597.572L4.76446 541.897C2.13312 532.884 7.30613 523.445 16.3187 520.813L179.506 473.169Z" fill="#D9D9D9"/>
<path d="M200.589 484.723L201.549 484.443L200.589 484.723ZM214.041 530.799L213.082 531.08L213.362 532.04L214.322 531.759L214.041 530.799ZM1400.51 184.394L1401.47 184.114L1401.19 183.154L1400.23 183.435L1400.51 184.394ZM1730.63 1315.07L1730.91 1316.03L1731.87 1315.75L1731.59 1314.79L1730.63 1315.07ZM348.336 1718.65L347.376 1718.93L347.656 1719.89L348.616 1719.61L348.336 1718.65ZM21.0623 597.711L22.0223 597.431L22.0199 597.423L21.0623 597.711ZM21.0197 597.572L20.0598 597.852L21.0197 597.572ZM4.76446 541.897L3.80454 542.177L3.80454 542.177L4.76446 541.897ZM16.3187 520.813L16.0384 519.853L16.0384 519.853L16.3187 520.813ZM179.506 473.169L179.786 474.129C188.268 471.652 197.152 476.521 199.629 485.003L200.589 484.723L201.549 484.443C198.763 474.9 188.768 469.423 179.225 472.209L179.506 473.169ZM200.589 484.723L199.629 485.003L213.082 531.08L214.041 530.799L215.001 530.519L201.549 484.443L200.589 484.723ZM214.041 530.799L214.322 531.759L1400.79 185.354L1400.51 184.394L1400.23 183.435L213.761 529.839L214.041 530.799ZM1400.51 184.394L1399.55 184.675L1729.67 1315.35L1730.63 1315.07L1731.59 1314.79L1401.47 184.114L1400.51 184.394ZM1730.63 1315.07L1730.35 1314.11L348.056 1717.69L348.336 1718.65L348.616 1719.61L1730.91 1316.03L1730.63 1315.07ZM348.336 1718.65L349.296 1718.37L22.0223 597.431L21.0623 597.711L20.1024 597.992L347.376 1718.93L348.336 1718.65ZM21.0623 597.711L22.0199 597.423C21.9926 597.332 21.9958 597.347 21.9796 597.292L21.0197 597.572L20.0598 597.852C20.0708 597.89 20.1041 597.997 20.1048 598L21.0623 597.711ZM21.0197 597.572L21.9796 597.292L5.72438 541.616L4.76446 541.897L3.80454 542.177L20.0598 597.852L21.0197 597.572ZM4.76446 541.897L5.72438 541.616C3.24783 533.134 8.11654 524.25 16.599 521.773L16.3187 520.813L16.0384 519.853C6.49572 522.64 1.01842 532.634 3.80454 542.177L4.76446 541.897ZM16.3187 520.813L16.599 521.773L179.786 474.129L179.506 473.169L179.225 472.209L16.0384 519.853L16.3187 520.813Z" fill="black" mask="url(#path-5-inside-1_449_192)"/>
<rect x="724.5" y="433.5" width="703" height="321" stroke="black"/>
</svg>
