<svg width="1440" height="334" viewBox="0 0 1440 334" fill="none" xmlns="http://www.w3.org/2000/svg">
<mask id="path-1-inside-1_275_1105" fill="white">
<path fill-rule="evenodd" clip-rule="evenodd" d="M411 0C402.716 0 396 6.71573 396 15V72.461H0V334H1440V72.461H594V15C594 6.71573 587.284 0 579 0H411Z"/>
</mask>
<path fill-rule="evenodd" clip-rule="evenodd" d="M411 0C402.716 0 396 6.71573 396 15V72.461H0V334H1440V72.461H594V15C594 6.71573 587.284 0 579 0H411Z" fill="#C2858C"/>
<path d="M396 72.461V73.461H397V72.461H396ZM0 72.461V71.461H-1V72.461H0ZM0 334H-1V335H0V334ZM1440 334V335H1441V334H1440ZM1440 72.461H1441V71.461H1440V72.461ZM594 72.461H593V73.461H594V72.461ZM397 15C397 7.26802 403.268 1 411 1V-1C402.163 -1 395 6.16345 395 15H397ZM397 72.461V15H395V72.461H397ZM0 73.461H396V71.461H0V73.461ZM1 334V72.461H-1V334H1ZM1440 333H0V335H1440V333ZM1439 72.461V334H1441V72.461H1439ZM594 73.461H1440V71.461H594V73.461ZM593 15V72.461H595V15H593ZM579 1C586.732 1 593 7.26801 593 15H595C595 6.16345 587.837 -1 579 -1V1ZM411 1H579V-1H411V1Z" fill="black" mask="url(#path-1-inside-1_275_1105)"/>
<path d="M451.332 32.6367V26.8594C451.332 26.2969 451.18 25.8359 450.875 25.4766C450.57 25.1172 450.098 24.9375 449.457 24.9375V24.7383H454.953V24.9375C454.312 24.9375 453.844 25.1172 453.547 25.4766C453.25 25.8281 453.102 26.2891 453.102 26.8594V39.9141C453.102 41.1797 453.719 41.8125 454.953 41.8125V42H449.457V41.8125C450.043 41.8125 450.5 41.6562 450.828 41.3438C451.164 41.0234 451.332 40.5547 451.332 39.9375V33.1641H441.441V39.9141C441.441 40.5156 441.609 40.9844 441.945 41.3203C442.289 41.6484 442.746 41.8125 443.316 41.8125V42H437.82V41.8125C438.414 41.8125 438.867 41.6484 439.18 41.3203C439.5 40.9844 439.66 40.5156 439.66 39.9141V26.8594C439.66 25.5781 439.047 24.9375 437.82 24.9375V24.7383H443.316V24.9375C442.668 24.9375 442.191 25.1172 441.887 25.4766C441.59 25.8281 441.441 26.2891 441.441 26.8594V32.6367H451.332ZM475.238 33.3867C475.238 35.0039 474.836 36.5078 474.031 37.8984C473.234 39.2891 472.145 40.3984 470.762 41.2266C469.379 42.0469 467.848 42.457 466.168 42.457C464.48 42.457 462.934 42.0469 461.527 41.2266C460.121 40.3984 459.012 39.2852 458.199 37.8867C457.395 36.4883 456.992 34.9648 456.992 33.3164C456.992 32.0508 457.23 30.8633 457.707 29.7539C458.191 28.6367 458.863 27.6641 459.723 26.8359C460.59 26.0078 461.574 25.3672 462.676 24.9141C463.785 24.4609 464.941 24.2344 466.145 24.2344C467.324 24.2344 468.457 24.4531 469.543 24.8906C470.629 25.3203 471.602 25.9453 472.461 26.7656C473.328 27.5859 474.008 28.5586 474.5 29.6836C474.992 30.8086 475.238 32.043 475.238 33.3867ZM473.176 33.4336C473.176 31.1367 472.77 29.3398 471.957 28.043C471.145 26.7461 470.207 25.8789 469.145 25.4414C468.082 24.9961 467.082 24.7734 466.145 24.7734C465.418 24.7734 464.664 24.8945 463.883 25.1367C463.102 25.3711 462.34 25.8047 461.598 26.4375C460.863 27.0703 460.258 27.9609 459.781 29.1094C459.305 30.2578 459.066 31.6758 459.066 33.3633C459.066 34.8477 459.262 36.1445 459.652 37.2539C460.051 38.3555 460.594 39.2578 461.281 39.9609C461.977 40.6562 462.738 41.1602 463.566 41.4727C464.402 41.7773 465.27 41.9297 466.168 41.9297C466.973 41.9297 467.785 41.7891 468.605 41.5078C469.434 41.2188 470.188 40.7539 470.867 40.1133C471.555 39.4648 472.109 38.5898 472.531 37.4883C472.961 36.3789 473.176 35.0273 473.176 33.4336ZM483.816 42H477.359V41.8125H477.594C478.031 41.8125 478.406 41.6562 478.719 41.3438C479.039 41.0234 479.199 40.5469 479.199 39.9141V26.8828C479.199 26.2656 479.051 25.7891 478.754 25.4531C478.465 25.1094 478.07 24.9375 477.57 24.9375H477.359V24.7383H482.996C483.738 24.7383 484.422 24.8477 485.047 25.0664C485.672 25.2773 486.199 25.5742 486.629 25.957C487.066 26.332 487.402 26.7617 487.637 27.2461C487.871 27.7227 487.988 28.2422 487.988 28.8047C487.988 29.8438 487.652 30.6875 486.98 31.3359C486.309 31.9844 485.406 32.4609 484.273 32.7656V32.8125C484.789 32.8672 485.285 32.9492 485.762 33.0586C486.238 33.168 486.668 33.3203 487.051 33.5156C487.434 33.7109 487.793 33.9648 488.129 34.2773C488.434 34.5586 488.691 34.8672 488.902 35.2031C489.113 35.5391 489.273 35.9062 489.383 36.3047C489.492 36.6953 489.547 37.0977 489.547 37.5117C489.547 38.4102 489.312 39.1836 488.844 39.832C488.383 40.4805 487.859 40.9727 487.273 41.3086C486.438 41.7695 485.285 42 483.816 42ZM480.98 32.6602H482.105C483.027 32.6602 483.684 32.5664 484.074 32.3789C484.324 32.2539 484.582 32.082 484.848 31.8633C485.121 31.6445 485.379 31.3008 485.621 30.832C485.871 30.3633 485.996 29.7969 485.996 29.1328C485.996 28.6172 485.914 28.1289 485.75 27.668C485.586 27.1992 485.348 26.7852 485.035 26.4258C484.723 26.0664 484.352 25.7852 483.922 25.582C483.492 25.3789 483.023 25.2773 482.516 25.2773C482.07 25.2773 481.559 25.3633 480.98 25.5352V32.6602ZM482.75 33.1875H480.98V39.4102C480.98 39.8242 481.02 40.1719 481.098 40.4531C481.184 40.7266 481.41 40.9648 481.777 41.168C482.145 41.3711 482.711 41.4727 483.477 41.4727C485.062 41.4727 486.191 40.9453 486.863 39.8906C487.324 39.1641 487.555 38.3477 487.555 37.4414C487.555 36.7852 487.438 36.1914 487.203 35.6602C486.977 35.1289 486.66 34.6875 486.254 34.3359C485.855 33.9766 485.352 33.6953 484.742 33.4922C484.133 33.2891 483.469 33.1875 482.75 33.1875ZM497.574 42H491.117V41.8125H491.352C491.789 41.8125 492.164 41.6562 492.477 41.3438C492.797 41.0234 492.957 40.5469 492.957 39.9141V26.8828C492.957 26.2656 492.809 25.7891 492.512 25.4531C492.223 25.1094 491.828 24.9375 491.328 24.9375H491.117V24.7383H496.754C497.496 24.7383 498.18 24.8477 498.805 25.0664C499.43 25.2773 499.957 25.5742 500.387 25.957C500.824 26.332 501.16 26.7617 501.395 27.2461C501.629 27.7227 501.746 28.2422 501.746 28.8047C501.746 29.8438 501.41 30.6875 500.738 31.3359C500.066 31.9844 499.164 32.4609 498.031 32.7656V32.8125C498.547 32.8672 499.043 32.9492 499.52 33.0586C499.996 33.168 500.426 33.3203 500.809 33.5156C501.191 33.7109 501.551 33.9648 501.887 34.2773C502.191 34.5586 502.449 34.8672 502.66 35.2031C502.871 35.5391 503.031 35.9062 503.141 36.3047C503.25 36.6953 503.305 37.0977 503.305 37.5117C503.305 38.4102 503.07 39.1836 502.602 39.832C502.141 40.4805 501.617 40.9727 501.031 41.3086C500.195 41.7695 499.043 42 497.574 42ZM494.738 32.6602H495.863C496.785 32.6602 497.441 32.5664 497.832 32.3789C498.082 32.2539 498.34 32.082 498.605 31.8633C498.879 31.6445 499.137 31.3008 499.379 30.832C499.629 30.3633 499.754 29.7969 499.754 29.1328C499.754 28.6172 499.672 28.1289 499.508 27.668C499.344 27.1992 499.105 26.7852 498.793 26.4258C498.48 26.0664 498.109 25.7852 497.68 25.582C497.25 25.3789 496.781 25.2773 496.273 25.2773C495.828 25.2773 495.316 25.3633 494.738 25.5352V32.6602ZM496.508 33.1875H494.738V39.4102C494.738 39.8242 494.777 40.1719 494.855 40.4531C494.941 40.7266 495.168 40.9648 495.535 41.168C495.902 41.3711 496.469 41.4727 497.234 41.4727C498.82 41.4727 499.949 40.9453 500.621 39.8906C501.082 39.1641 501.312 38.3477 501.312 37.4414C501.312 36.7852 501.195 36.1914 500.961 35.6602C500.734 35.1289 500.418 34.6875 500.012 34.3359C499.613 33.9766 499.109 33.6953 498.5 33.4922C497.891 33.2891 497.227 33.1875 496.508 33.1875ZM510.395 24.7383V24.9375C509.879 24.9375 509.441 25.082 509.082 25.3711C508.723 25.6602 508.543 26.1406 508.543 26.8125V39.9141C508.543 40.5781 508.734 41.0625 509.117 41.3672C509.5 41.6641 509.926 41.8125 510.395 41.8125V42H504.922V41.8125C505.422 41.8125 505.852 41.668 506.211 41.3789C506.578 41.082 506.762 40.5938 506.762 39.9141V26.8125C506.762 26.0938 506.578 25.6016 506.211 25.3359C505.852 25.0703 505.422 24.9375 504.922 24.9375V24.7383H510.395ZM512.117 24.9375V24.7383H522.406V27.457H522.242C522.242 26.0039 521.273 25.2773 519.336 25.2773H515.738V33.1172H518.902C519.527 33.1172 520.086 33.0156 520.578 32.8125C521.07 32.6094 521.352 32.1445 521.422 31.418H521.598V35.332H521.422C521.352 34.8867 521.219 34.5469 521.023 34.3125C520.828 34.0703 520.633 33.9102 520.438 33.832C520.25 33.7539 520.082 33.7148 519.934 33.7148C519.652 33.668 519.359 33.6445 519.055 33.6445H515.738V39.7734C515.738 40.2344 515.824 40.6328 515.996 40.9688C516.176 41.3047 516.586 41.4727 517.227 41.4727H519.793C520.41 41.4727 520.918 41.3828 521.316 41.2031C521.715 41.0234 522.027 40.7734 522.254 40.4531C522.488 40.1328 522.684 39.7461 522.84 39.293H523.004L522.406 42H512.117V41.8125H512.352C512.719 41.8125 513.078 41.6641 513.43 41.3672C513.781 41.0703 513.957 40.5859 513.957 39.9141V26.9062C513.957 26.375 513.836 25.9141 513.594 25.5234C513.359 25.1328 512.945 24.9375 512.352 24.9375H512.117ZM533.246 28.0547H533.059C532.949 27.2188 532.582 26.4883 531.957 25.8633C531.34 25.2305 530.523 24.9141 529.508 24.9141C528.844 24.9141 528.254 25.0703 527.738 25.3828C527.223 25.6953 526.824 26.1211 526.543 26.6602C526.262 27.1992 526.121 27.8164 526.121 28.5117C526.121 29.0508 526.203 29.5312 526.367 29.9531C526.539 30.3672 526.789 30.7344 527.117 31.0547C527.445 31.375 527.832 31.6758 528.277 31.957C528.723 32.2305 529.324 32.5781 530.082 33C531.348 33.6953 532.332 34.3906 533.035 35.0859C533.738 35.7734 534.09 36.7188 534.09 37.9219C534.09 38.6562 533.898 39.3672 533.516 40.0547C533.141 40.7344 532.57 41.293 531.805 41.7305C531.039 42.168 530.09 42.3867 528.957 42.3867C528.246 42.3867 527.617 42.3086 527.07 42.1523C526.523 42.0039 525.969 41.793 525.406 41.5195C525.172 41.4414 525.012 41.4023 524.926 41.4023C524.762 41.4023 524.652 41.4609 524.598 41.5781C524.551 41.6953 524.484 41.9492 524.398 42.3398H524.199V38.0156H524.398C524.68 39.2812 525.227 40.2383 526.039 40.8867C526.852 41.5352 527.84 41.8594 529.004 41.8594C529.879 41.8594 530.578 41.6953 531.102 41.3672C531.633 41.0391 532 40.6406 532.203 40.1719C532.406 39.7031 532.508 39.2344 532.508 38.7656C532.508 37.7969 532.211 37.0078 531.617 36.3984C531.031 35.7812 530.137 35.1523 528.934 34.5117C528.105 34.0586 527.492 33.707 527.094 33.457C526.695 33.207 526.289 32.8828 525.875 32.4844C525.469 32.0859 525.145 31.6172 524.902 31.0781C524.66 30.5312 524.539 29.9062 524.539 29.2031C524.539 28.3906 524.754 27.6133 525.184 26.8711C525.613 26.1289 526.223 25.5352 527.012 25.0898C527.801 24.6367 528.695 24.4102 529.695 24.4102C530.453 24.4102 531.23 24.5391 532.027 24.7969C532.152 24.8594 532.32 24.8906 532.531 24.8906C532.789 24.8906 532.965 24.7148 533.059 24.3633H533.246V28.0547Z" fill="black"/>
</svg>
