<svg width="1444" height="919" viewBox="0 0 1444 919" fill="none" xmlns="http://www.w3.org/2000/svg">
<mask id="path-1-inside-1_152_108" fill="white">
<path d="M86 0C94.8366 0 102 7.16344 102 16V36H1444V919H0V16C0 7.16344 7.16344 3.06022e-07 16 0H86Z"/>
</mask>
<path d="M86 0C94.8366 0 102 7.16344 102 16V36H1444V919H0V16C0 7.16344 7.16344 3.06022e-07 16 0H86Z" fill="#4D0012"/>
<path d="M102 36H101V37H102V36ZM1444 36H1445V35H1444V36ZM1444 919V920H1445V919H1444ZM0 919H-1V920H0V919ZM0 16H-1H0ZM16 0L16 -1L16 -1L16 0ZM86 0V1C94.2843 1 101 7.71573 101 16H102H103C103 6.61116 95.3888 -1 86 -1V0ZM102 16H101V36H102H103V16H102ZM102 36V37H1444V36V35H102V36ZM1444 36H1443V919H1444H1445V36H1444ZM1444 919V918H0V919V920H1444V919ZM0 919H1V16H0H-1V919H0ZM0 16H1C1 7.71573 7.71573 1 16 1L16 0L16 -1C6.61116 -1 -1 6.61116 -1 16H0ZM16 0V1H86V0V-1H16V0Z" fill="black" mask="url(#path-1-inside-1_152_108)"/>
<path d="M24.4824 27.8984H24.6094C24.8379 27.8984 25.0389 27.8096 25.2124 27.6318C25.3901 27.4499 25.479 27.196 25.479 26.8701V19.8115C25.479 19.4222 25.3796 19.1514 25.1807 18.999C24.986 18.8467 24.7533 18.7663 24.4824 18.7578V18.6499H27.4722V18.7578C27.2098 18.7663 26.9771 18.8446 26.7739 18.9927C26.5708 19.1408 26.4692 19.4137 26.4692 19.8115V26.6353C26.4692 27.0415 26.5708 27.3229 26.7739 27.4795C26.9771 27.6361 27.3092 27.7144 27.7705 27.7144H28.5767C28.9279 27.7144 29.2072 27.672 29.4146 27.5874C29.6261 27.5028 29.7933 27.3737 29.916 27.2002C30.0387 27.0267 30.1636 26.7812 30.2905 26.4639H30.3984L30.043 28H24.4824V27.8984ZM33.9468 18.6499V18.7578C33.6675 18.7578 33.4305 18.8361 33.2358 18.9927C33.0412 19.1493 32.9438 19.4095 32.9438 19.7734V26.8701C32.9438 27.2298 33.0475 27.4922 33.2549 27.6572C33.4622 27.818 33.6929 27.8984 33.9468 27.8984V28H30.9824V27.8984C31.2533 27.8984 31.486 27.8201 31.6807 27.6636C31.8796 27.5028 31.979 27.2383 31.979 26.8701V19.7734C31.979 19.3841 31.8796 19.1175 31.6807 18.9736C31.486 18.8298 31.2533 18.7578 30.9824 18.7578V18.6499H33.9468ZM34.8672 18.7578V18.6499H40.4785V20.0718H40.377C40.3516 19.7798 40.2437 19.5195 40.0532 19.291C39.867 19.0583 39.5454 18.9419 39.0884 18.9419H36.8413V23.1758H38.936C39.3338 23.1758 39.6047 23.0954 39.7485 22.9346C39.8924 22.7695 39.9855 22.5431 40.0278 22.2554H40.1294V24.3755H40.0278C40.0024 24.1089 39.9136 23.891 39.7612 23.7217C39.6131 23.5482 39.3381 23.4614 38.936 23.4614H36.8413V26.8701C36.8413 27.179 36.9302 27.4287 37.1079 27.6191C37.2856 27.8053 37.4993 27.8984 37.749 27.8984H37.8823V28H34.8672V27.8984H34.9941C35.248 27.8984 35.4575 27.8032 35.6226 27.6128C35.7918 27.4224 35.8765 27.1748 35.8765 26.8701V19.7988C35.8765 19.3968 35.7855 19.1239 35.6035 18.98C35.4215 18.8319 35.2184 18.7578 34.9941 18.7578H34.8672ZM41.5068 18.7578V18.6499H47.0801V20.1226H46.9912C46.9912 19.3354 46.4665 18.9419 45.417 18.9419H43.4683V23.1885H45.1821C45.5207 23.1885 45.8232 23.1335 46.0898 23.0234C46.3564 22.9134 46.5088 22.6616 46.5469 22.2681H46.6421V24.3882H46.5469C46.5088 24.147 46.4368 23.9629 46.3311 23.8359C46.2253 23.7048 46.1195 23.618 46.0137 23.5757C45.9121 23.5334 45.8211 23.5122 45.7407 23.5122C45.5884 23.4868 45.4297 23.4741 45.2646 23.4741H43.4683V26.7939C43.4683 27.0436 43.5148 27.2594 43.6079 27.4414C43.7052 27.6234 43.9274 27.7144 44.2744 27.7144H45.6646C45.9989 27.7144 46.2739 27.6657 46.4897 27.5684C46.7056 27.471 46.8748 27.3356 46.9976 27.1621C47.1245 26.9886 47.2303 26.7791 47.3149 26.5337H47.4038L47.0801 28H41.5068V27.8984H41.6338C41.8327 27.8984 42.0273 27.818 42.2178 27.6572C42.4082 27.4964 42.5034 27.234 42.5034 26.8701V19.8242C42.5034 19.5365 42.4378 19.2868 42.3066 19.0752C42.1797 18.8636 41.9554 18.7578 41.6338 18.7578H41.5068ZM56.7476 18.5356L59.5469 26.5464C59.695 26.9611 59.8346 27.2616 59.9658 27.4478C60.097 27.634 60.2218 27.7524 60.3403 27.8032C60.4631 27.8498 60.6175 27.8815 60.8037 27.8984V28H57.7505V27.8984C58.0636 27.8984 58.3049 27.8688 58.4741 27.8096C58.6434 27.7503 58.728 27.5895 58.728 27.3271C58.728 27.1833 58.6878 26.9907 58.6074 26.7495C58.5905 26.7157 58.582 26.6903 58.582 26.6733L57.7505 24.1914H54.5132L53.7705 26.4893C53.6689 26.8024 53.6182 27.0542 53.6182 27.2446C53.6182 27.507 53.6838 27.6826 53.8149 27.7715C53.9461 27.8561 54.1323 27.8984 54.3735 27.8984V28H52.1772V27.8984C52.4904 27.8688 52.7401 27.7503 52.9263 27.543C53.1167 27.3314 53.2817 27.0119 53.4214 26.5845L56.062 18.5356H56.7476ZM54.6211 23.855H57.5981L56.0747 19.418H56.0493L54.6211 23.855ZM61.4639 18.7578V18.6499H64.5298C65.0418 18.6499 65.4925 18.7197 65.8818 18.8594C66.2754 18.999 66.6012 19.1895 66.8594 19.4307C67.1217 19.6719 67.3164 19.9448 67.4434 20.2495C67.5745 20.55 67.6401 20.8674 67.6401 21.2017C67.6401 21.5275 67.5788 21.8428 67.4561 22.1475C67.3376 22.4479 67.1493 22.7166 66.8911 22.9536C66.633 23.1864 66.2944 23.3726 65.8755 23.5122C65.4565 23.6519 64.9741 23.7217 64.4282 23.7217C64.2547 23.7217 63.9204 23.6963 63.4253 23.6455V26.8701C63.4253 27.5345 63.7638 27.8773 64.4409 27.8984V28H61.4639V27.8984C61.7559 27.89 61.995 27.8075 62.1812 27.6509C62.3716 27.4901 62.4668 27.2298 62.4668 26.8701V19.7988C62.4668 19.583 62.4329 19.4032 62.3652 19.2593C62.2975 19.1154 62.2171 19.0138 62.124 18.9546C62.0352 18.8911 61.9336 18.8446 61.8193 18.8149C61.7093 18.7853 61.6331 18.7663 61.5908 18.7578H61.4639ZM63.4253 18.98V23.3853C63.7511 23.4445 64.0728 23.4741 64.3901 23.4741C64.9953 23.4741 65.5073 23.3197 65.9263 23.0107C66.3494 22.6976 66.561 22.12 66.561 21.2778C66.561 20.5838 66.3748 20.0146 66.0024 19.5703C65.6343 19.1217 65.0736 18.8975 64.3203 18.8975C64.0283 18.8975 63.73 18.925 63.4253 18.98ZM68.5098 18.7578V18.6499H71.5757C72.0877 18.6499 72.5384 18.7197 72.9277 18.8594C73.3213 18.999 73.6471 19.1895 73.9053 19.4307C74.1676 19.6719 74.3623 19.9448 74.4893 20.2495C74.6204 20.55 74.686 20.8674 74.686 21.2017C74.686 21.5275 74.6247 21.8428 74.502 22.1475C74.3835 22.4479 74.1951 22.7166 73.937 22.9536C73.6789 23.1864 73.3403 23.3726 72.9214 23.5122C72.5024 23.6519 72.02 23.7217 71.4741 23.7217C71.3006 23.7217 70.9663 23.6963 70.4712 23.6455V26.8701C70.4712 27.5345 70.8097 27.8773 71.4868 27.8984V28H68.5098V27.8984C68.8018 27.89 69.0409 27.8075 69.2271 27.6509C69.4175 27.4901 69.5127 27.2298 69.5127 26.8701V19.7988C69.5127 19.583 69.4788 19.4032 69.4111 19.2593C69.3434 19.1154 69.263 19.0138 69.1699 18.9546C69.0811 18.8911 68.9795 18.8446 68.8652 18.8149C68.7552 18.7853 68.679 18.7663 68.6367 18.7578H68.5098ZM70.4712 18.98V23.3853C70.797 23.4445 71.1187 23.4741 71.436 23.4741C72.0412 23.4741 72.5532 23.3197 72.9722 23.0107C73.3953 22.6976 73.6069 22.12 73.6069 21.2778C73.6069 20.5838 73.4207 20.0146 73.0483 19.5703C72.6802 19.1217 72.1195 18.8975 71.3662 18.8975C71.0742 18.8975 70.7759 18.925 70.4712 18.98Z" fill="white"/>
</svg>
