<svg width="1444" height="853" viewBox="0 0 1444 853" fill="none" xmlns="http://www.w3.org/2000/svg">
<mask id="path-1-inside-1_152_106" fill="white">
<path d="M195.854 0C204.69 0.000121562 211.854 7.16352 211.854 16V36H1444V853H0V36H109.924V16C109.924 7.16346 117.087 2.5068e-05 125.924 0H195.854Z"/>
</mask>
<path d="M195.854 0C204.69 0.000121562 211.854 7.16352 211.854 16V36H1444V853H0V36H109.924V16C109.924 7.16346 117.087 2.5068e-05 125.924 0H195.854Z" fill="#4D0012"/>
<path d="M195.854 0L195.854 -1H195.854V0ZM211.854 36H210.854V37H211.854V36ZM1444 36H1445V35H1444V36ZM1444 853V854H1445V853H1444ZM0 853H-1V854H0V853ZM0 36V35H-1V36H0ZM109.924 36V37H110.924V36H109.924ZM125.924 0L125.924 -1L125.924 -1L125.924 0ZM195.854 0L195.854 1C204.138 1.00011 210.854 7.71582 210.854 16H211.854H212.854C212.854 6.61122 205.242 -0.999871 195.854 -1L195.854 0ZM211.854 16H210.854V36H211.854H212.854V16H211.854ZM211.854 36V37H1444V36V35H211.854V36ZM1444 36H1443V853H1444H1445V36H1444ZM1444 853V852H0V853V854H1444V853ZM0 853H1V36H0H-1V853H0ZM0 36V37H109.924V36V35H0V36ZM109.924 36H110.924V16H109.924H108.924V36H109.924ZM109.924 16H110.924C110.924 7.71575 117.64 1.00002 125.924 1L125.924 0L125.924 -1C116.535 -0.999973 108.924 6.61117 108.924 16H109.924ZM125.924 0V1H195.854V0V-1H125.924V0Z" fill="black" mask="url(#path-1-inside-1_152_106)"/>
<path d="M131.385 15.6499V15.7578C131.207 15.779 131.08 15.798 131.004 15.8149C130.928 15.8276 130.843 15.87 130.75 15.9419C130.606 16.0519 130.515 16.1556 130.477 16.2529C130.443 16.3503 130.422 16.5195 130.414 16.7607C130.401 16.7988 130.401 16.8369 130.414 16.875L130.737 23.8193C130.746 24.1113 130.816 24.3631 130.947 24.5747C131.078 24.7863 131.364 24.8942 131.804 24.8984V25H128.776V24.8984C129.174 24.8561 129.442 24.7419 129.582 24.5557C129.722 24.3652 129.781 24.0711 129.76 23.6733L129.436 16.4878H129.411L126.11 25L122.987 16.7988H122.961L122.625 23.4258C122.608 23.7897 122.629 24.0732 122.688 24.2764C122.752 24.4753 122.851 24.6191 122.987 24.708C123.122 24.7926 123.323 24.8561 123.59 24.8984V25H121.235V24.8984C121.535 24.8942 121.764 24.8223 121.92 24.6826C122.077 24.543 122.179 24.3695 122.225 24.1621C122.276 23.9505 122.314 23.6628 122.339 23.2988L122.714 16.4434C122.714 16.418 122.688 16.3735 122.638 16.3101C122.587 16.2424 122.523 16.1768 122.447 16.1133C122.375 16.0456 122.306 15.9927 122.238 15.9546C122.094 15.8657 121.969 15.8149 121.863 15.8022C121.757 15.7853 121.609 15.7705 121.419 15.7578V15.6499H123.59L126.484 23.2988L129.423 15.6499H131.385ZM140.906 15.6499V15.7578C140.627 15.762 140.377 15.8276 140.157 15.9546C139.941 16.0815 139.772 16.2148 139.649 16.3545C139.527 16.4899 139.396 16.6549 139.256 16.8496L137.072 20.1377V23.8828C137.072 24.2171 137.172 24.4689 137.371 24.6382C137.574 24.8032 137.817 24.89 138.101 24.8984V25H135.136V24.8984C135.437 24.89 135.674 24.8053 135.847 24.6445C136.025 24.4795 136.114 24.2256 136.114 23.8828V20.2964L133.733 16.729C133.479 16.3439 133.251 16.0879 133.048 15.9609C132.849 15.834 132.578 15.7663 132.235 15.7578V15.6499H135.555V15.7578C135.217 15.7705 134.999 15.8446 134.901 15.98C134.808 16.1112 134.762 16.236 134.762 16.3545C134.762 16.4899 134.844 16.6803 135.009 16.9258L136.958 19.814L138.685 17.2114C138.947 16.8221 139.078 16.5238 139.078 16.3164C139.078 16.1725 139.042 16.0604 138.97 15.98C138.903 15.8996 138.833 15.8467 138.761 15.8213C138.689 15.7959 138.613 15.7747 138.532 15.7578V15.6499H140.906ZM154.42 17.5923H154.319C154.183 16.9829 153.824 16.5111 153.24 16.1768C152.656 15.8382 151.989 15.6689 151.24 15.6689C150.851 15.6689 150.432 15.7303 149.983 15.853C149.539 15.9715 149.105 16.1895 148.682 16.5068C148.259 16.8242 147.908 17.2855 147.628 17.8906C147.349 18.4915 147.209 19.249 147.209 20.1631C147.209 21.6188 147.548 22.7826 148.225 23.6543C148.906 24.526 149.998 24.9619 151.5 24.9619C152.093 24.9619 152.529 24.9217 152.808 24.8413C153.087 24.7609 153.265 24.6509 153.341 24.5112C153.422 24.3716 153.462 24.1833 153.462 23.9463V22.2324C153.462 21.8262 153.373 21.5575 153.195 21.4263C153.022 21.2951 152.759 21.2083 152.408 21.166V21.0581H155.449V21.166C155.169 21.1956 154.954 21.257 154.801 21.3501C154.649 21.439 154.547 21.5553 154.497 21.6992C154.446 21.8431 154.42 22.0335 154.42 22.2705V24.873C153.489 25.1227 152.529 25.2476 151.539 25.2476C151.027 25.2476 150.521 25.2052 150.021 25.1206C149.522 25.036 149.002 24.8477 148.46 24.5557C147.918 24.2637 147.44 23.832 147.025 23.2607C146.403 22.4017 146.092 21.4305 146.092 20.3472C146.092 19.7166 146.209 19.103 146.441 18.5063C146.678 17.9097 147.017 17.3765 147.457 16.9067C147.901 16.4328 148.443 16.0604 149.082 15.7896C149.721 15.5145 150.43 15.377 151.208 15.377C151.509 15.377 151.803 15.3981 152.091 15.4404C152.379 15.4785 152.808 15.5589 153.379 15.6816C153.604 15.7324 153.764 15.7578 153.862 15.7578C154.069 15.7578 154.222 15.6541 154.319 15.4468H154.42V17.5923ZM160.286 15.5356L163.085 23.5464C163.233 23.9611 163.373 24.2616 163.504 24.4478C163.635 24.634 163.76 24.7524 163.878 24.8032C164.001 24.8498 164.156 24.8815 164.342 24.8984V25H161.289V24.8984C161.602 24.8984 161.843 24.8688 162.012 24.8096C162.181 24.7503 162.266 24.5895 162.266 24.3271C162.266 24.1833 162.226 23.9907 162.146 23.7495C162.129 23.7157 162.12 23.6903 162.12 23.6733L161.289 21.1914H158.051L157.309 23.4893C157.207 23.8024 157.156 24.0542 157.156 24.2446C157.156 24.507 157.222 24.6826 157.353 24.7715C157.484 24.8561 157.67 24.8984 157.912 24.8984V25H155.715V24.8984C156.028 24.8688 156.278 24.7503 156.464 24.543C156.655 24.3314 156.82 24.0119 156.959 23.5845L159.6 15.5356H160.286ZM158.159 20.855H161.136L159.613 16.418H159.587L158.159 20.855ZM165.078 15.7832H164.951V15.6499H168.188C168.709 15.6499 169.149 15.7303 169.509 15.8911C169.873 16.0519 170.154 16.2572 170.353 16.5068C170.556 16.7523 170.7 17.0125 170.785 17.2876C170.874 17.5627 170.918 17.8335 170.918 18.1001C170.918 18.4386 170.846 18.7645 170.702 19.0776C170.562 19.3866 170.345 19.6532 170.048 19.8774C169.756 20.1017 169.39 20.2541 168.95 20.3345V20.3599C169.509 20.6307 170.025 21.1681 170.499 21.9722L171.343 23.4004C171.724 24.0394 172.029 24.4435 172.257 24.6128C172.49 24.7821 172.719 24.8773 172.943 24.8984V25H171.242C171.17 24.9069 171.102 24.818 171.039 24.7334C170.975 24.6445 170.907 24.5514 170.835 24.4541C170.793 24.3906 170.73 24.2954 170.645 24.1685C170.565 24.0373 170.516 23.9632 170.499 23.9463L169.382 22.0991C169.158 21.7225 168.927 21.4178 168.69 21.1851C168.457 20.9481 168.239 20.7788 168.036 20.6772C167.833 20.5757 167.649 20.5122 167.484 20.4868C167.323 20.4614 167.133 20.4487 166.913 20.4487V23.8701C166.913 24.5345 167.251 24.8773 167.928 24.8984V25H164.951V24.8984C165.137 24.89 165.302 24.8561 165.446 24.7969C165.59 24.7334 165.709 24.6276 165.802 24.4795C165.899 24.3271 165.948 24.124 165.948 23.8701V16.7988C165.948 16.4264 165.857 16.1641 165.675 16.0117C165.493 15.8594 165.294 15.7832 165.078 15.7832ZM166.913 20.2012H167.446C168.004 20.2012 168.461 20.1208 168.817 19.96C169.177 19.7992 169.437 19.5706 169.598 19.2744C169.758 18.974 169.839 18.6079 169.839 18.1763C169.839 17.8166 169.767 17.4653 169.623 17.1226C169.479 16.7756 169.234 16.4857 168.887 16.2529C168.544 16.016 168.081 15.8975 167.497 15.8975C167.26 15.8975 167.065 15.9165 166.913 15.9546V20.2012ZM173.521 15.7578V15.6499H177.12C177.623 15.6499 178.087 15.6943 178.51 15.7832C178.937 15.8678 179.318 15.9821 179.652 16.126C179.991 16.2699 180.283 16.4285 180.528 16.6021C180.774 16.7713 180.981 16.9448 181.15 17.1226C181.447 17.4188 181.698 17.7489 181.906 18.1128C182.113 18.4725 182.268 18.8534 182.369 19.2554C182.475 19.6574 182.528 20.0721 182.528 20.4995C182.528 20.9269 182.477 21.3332 182.375 21.7183C182.274 22.1034 182.128 22.4609 181.938 22.791C181.747 23.1169 181.519 23.4131 181.252 23.6797C180.99 23.9463 180.683 24.1875 180.332 24.4033C180.031 24.5811 179.686 24.7249 179.297 24.835C178.908 24.945 178.381 25 177.716 25H173.521V24.8984H173.647C173.939 24.8984 174.157 24.7884 174.301 24.5684C174.445 24.3483 174.517 24.1156 174.517 23.8701V16.8115C174.517 16.5745 174.477 16.3757 174.396 16.2148C174.32 16.054 174.217 15.9377 174.085 15.8657C173.954 15.7938 173.808 15.7578 173.647 15.7578H173.521ZM175.482 16.0942V23.502C175.482 23.8659 175.539 24.1346 175.653 24.3081C175.772 24.4774 175.954 24.5874 176.199 24.6382C176.445 24.689 176.804 24.7144 177.278 24.7144C177.955 24.7144 178.527 24.6488 178.992 24.5176C179.458 24.3822 179.908 24.0838 180.344 23.6226C180.666 23.2798 180.924 22.8608 181.119 22.3657C181.313 21.8706 181.411 21.2718 181.411 20.5693C181.411 20.015 181.332 19.467 181.176 18.9253C181.019 18.3794 180.78 17.8949 180.458 17.4717C180.099 16.9935 179.635 16.619 179.068 16.3481C178.506 16.0773 177.826 15.9419 177.031 15.9419C176.62 15.9419 176.104 15.9927 175.482 16.0942ZM183.651 15.7578V15.6499H189.225V17.1226H189.136C189.136 16.3354 188.611 15.9419 187.562 15.9419H185.613V20.1885H187.327C187.665 20.1885 187.968 20.1335 188.234 20.0234C188.501 19.9134 188.653 19.6616 188.691 19.2681H188.787V21.3882H188.691C188.653 21.147 188.581 20.9629 188.476 20.8359C188.37 20.7048 188.264 20.618 188.158 20.5757C188.057 20.5334 187.966 20.5122 187.885 20.5122C187.733 20.4868 187.574 20.4741 187.409 20.4741H185.613V23.7939C185.613 24.0436 185.659 24.2594 185.752 24.4414C185.85 24.6234 186.072 24.7144 186.419 24.7144H187.809C188.143 24.7144 188.418 24.6657 188.634 24.5684C188.85 24.471 189.019 24.3356 189.142 24.1621C189.269 23.9886 189.375 23.7791 189.459 23.5337H189.548L189.225 25H183.651V24.8984H183.778C183.977 24.8984 184.172 24.818 184.362 24.6572C184.553 24.4964 184.648 24.234 184.648 23.8701V16.8242C184.648 16.5365 184.582 16.2868 184.451 16.0752C184.324 15.8636 184.1 15.7578 183.778 15.7578H183.651ZM199.971 15.6499V15.7578C199.734 15.7874 199.546 15.834 199.406 15.8975C199.271 15.9567 199.165 16.0773 199.089 16.2593C199.013 16.437 198.975 16.6951 198.975 17.0337V25.2349H198.911L191.732 17.2241V22.9751C191.732 23.4533 191.751 23.8088 191.789 24.0415C191.827 24.2743 191.882 24.4414 191.954 24.543C192.111 24.763 192.384 24.8815 192.773 24.8984V25H190.431V24.8984C190.693 24.8857 190.896 24.8307 191.04 24.7334C191.188 24.6318 191.292 24.4499 191.351 24.1875C191.415 23.9209 191.446 23.521 191.446 22.9878V16.8877L191.135 16.5386C190.86 16.2254 190.64 16.0286 190.475 15.9482C190.31 15.8636 190.105 15.8001 189.859 15.7578V15.6499H191.618L198.689 23.5718V17.5352C198.689 17.0824 198.67 16.7438 198.632 16.5195C198.598 16.2952 198.503 16.1154 198.346 15.98C198.194 15.8446 197.953 15.7705 197.623 15.7578V15.6499H199.971Z" fill="white"/>
</svg>
