<svg width="1440" height="295" viewBox="0 0 1440 295" fill="none" xmlns="http://www.w3.org/2000/svg">
<mask id="path-1-inside-1_277_1117" fill="white">
<path fill-rule="evenodd" clip-rule="evenodd" d="M213 0C204.716 0 198 6.71573 198 15V64H0V295H1440V64H396V15C396 6.71573 389.284 0 381 0H213Z"/>
</mask>
<path fill-rule="evenodd" clip-rule="evenodd" d="M213 0C204.716 0 198 6.71573 198 15V64H0V295H1440V64H396V15C396 6.71573 389.284 0 381 0H213Z" fill="#902225"/>
<path d="M198 64V65H199V64H198ZM0 64V63H-1V64H0ZM0 295H-1V296H0V295ZM1440 295V296H1441V295H1440ZM1440 64H1441V63H1440V64ZM396 64H395V65H396V64ZM199 15C199 7.26801 205.268 1 213 1V-1C204.163 -1 197 6.16344 197 15H199ZM199 64V15H197V64H199ZM0 65H198V63H0V65ZM1 295V64H-1V295H1ZM1440 294H0V296H1440V294ZM1439 64V295H1441V64H1439ZM396 65H1440V63H396V65ZM395 15V64H397V15H395ZM381 1C388.732 1 395 7.26801 395 15H397C397 6.16344 389.837 -1 381 -1V1ZM213 1H381V-1H213V1Z" fill="black" mask="url(#path-1-inside-1_277_1117)"/>
<path d="M243.914 26.9375V26.7383H249.574C250.52 26.7383 251.352 26.8672 252.07 27.125C252.797 27.3828 253.398 27.7344 253.875 28.1797C254.359 28.625 254.719 29.1289 254.953 29.6914C255.195 30.2461 255.316 30.832 255.316 31.4492C255.316 32.0508 255.203 32.6328 254.977 33.1953C254.758 33.75 254.41 34.2461 253.934 34.6836C253.457 35.1133 252.832 35.457 252.059 35.7148C251.285 35.9727 250.395 36.1016 249.387 36.1016C249.066 36.1016 248.449 36.0547 247.535 35.9609V41.9141C247.535 43.1406 248.16 43.7734 249.41 43.8125V44H243.914V43.8125C244.453 43.7969 244.895 43.6445 245.238 43.3555C245.59 43.0586 245.766 42.5781 245.766 41.9141V28.8594C245.766 28.4609 245.703 28.1289 245.578 27.8633C245.453 27.5977 245.305 27.4102 245.133 27.3008C244.969 27.1836 244.781 27.0977 244.57 27.043C244.367 26.9883 244.227 26.9531 244.148 26.9375H243.914ZM247.535 27.3477V35.4805C248.137 35.5898 248.73 35.6445 249.316 35.6445C250.434 35.6445 251.379 35.3594 252.152 34.7891C252.934 34.2109 253.324 33.1445 253.324 31.5898C253.324 30.3086 252.98 29.2578 252.293 28.4375C251.613 27.6094 250.578 27.1953 249.188 27.1953C248.648 27.1953 248.098 27.2461 247.535 27.3477ZM257.062 26.9844H256.828V26.7383H262.805C263.766 26.7383 264.578 26.8867 265.242 27.1836C265.914 27.4805 266.434 27.8594 266.801 28.3203C267.176 28.7734 267.441 29.2539 267.598 29.7617C267.762 30.2695 267.844 30.7695 267.844 31.2617C267.844 31.8867 267.711 32.4883 267.445 33.0664C267.188 33.6367 266.785 34.1289 266.238 34.543C265.699 34.957 265.023 35.2383 264.211 35.3867V35.4336C265.242 35.9336 266.195 36.9258 267.07 38.4102L268.629 41.0469C269.332 42.2266 269.895 42.9727 270.316 43.2852C270.746 43.5977 271.168 43.7734 271.582 43.8125V44H268.441C268.309 43.8281 268.184 43.6641 268.066 43.5078C267.949 43.3438 267.824 43.1719 267.691 42.9922C267.613 42.875 267.496 42.6992 267.34 42.4648C267.191 42.2227 267.102 42.0859 267.07 42.0547L265.008 38.6445C264.594 37.9492 264.168 37.3867 263.73 36.957C263.301 36.5195 262.898 36.207 262.523 36.0195C262.148 35.832 261.809 35.7148 261.504 35.668C261.207 35.6211 260.855 35.5977 260.449 35.5977V41.9141C260.449 43.1406 261.074 43.7734 262.324 43.8125V44H256.828V43.8125C257.172 43.7969 257.477 43.7344 257.742 43.625C258.008 43.5078 258.227 43.3125 258.398 43.0391C258.578 42.7578 258.668 42.3828 258.668 41.9141V28.8594C258.668 28.1719 258.5 27.6875 258.164 27.4062C257.828 27.125 257.461 26.9844 257.062 26.9844ZM260.449 35.1406H261.434C262.465 35.1406 263.309 34.9922 263.965 34.6953C264.629 34.3984 265.109 33.9766 265.406 33.4297C265.703 32.875 265.852 32.1992 265.852 31.4023C265.852 30.7383 265.719 30.0898 265.453 29.457C265.188 28.8164 264.734 28.2812 264.094 27.8516C263.461 27.4141 262.605 27.1953 261.527 27.1953C261.09 27.1953 260.73 27.2305 260.449 27.3008V35.1406ZM289.723 35.3867C289.723 37.0039 289.32 38.5078 288.516 39.8984C287.719 41.2891 286.629 42.3984 285.246 43.2266C283.863 44.0469 282.332 44.457 280.652 44.457C278.965 44.457 277.418 44.0469 276.012 43.2266C274.605 42.3984 273.496 41.2852 272.684 39.8867C271.879 38.4883 271.477 36.9648 271.477 35.3164C271.477 34.0508 271.715 32.8633 272.191 31.7539C272.676 30.6367 273.348 29.6641 274.207 28.8359C275.074 28.0078 276.059 27.3672 277.16 26.9141C278.27 26.4609 279.426 26.2344 280.629 26.2344C281.809 26.2344 282.941 26.4531 284.027 26.8906C285.113 27.3203 286.086 27.9453 286.945 28.7656C287.812 29.5859 288.492 30.5586 288.984 31.6836C289.477 32.8086 289.723 34.043 289.723 35.3867ZM287.66 35.4336C287.66 33.1367 287.254 31.3398 286.441 30.043C285.629 28.7461 284.691 27.8789 283.629 27.4414C282.566 26.9961 281.566 26.7734 280.629 26.7734C279.902 26.7734 279.148 26.8945 278.367 27.1367C277.586 27.3711 276.824 27.8047 276.082 28.4375C275.348 29.0703 274.742 29.9609 274.266 31.1094C273.789 32.2578 273.551 33.6758 273.551 35.3633C273.551 36.8477 273.746 38.1445 274.137 39.2539C274.535 40.3555 275.078 41.2578 275.766 41.9609C276.461 42.6562 277.223 43.1602 278.051 43.4727C278.887 43.7773 279.754 43.9297 280.652 43.9297C281.457 43.9297 282.27 43.7891 283.09 43.5078C283.918 43.2188 284.672 42.7539 285.352 42.1133C286.039 41.4648 286.594 40.5898 287.016 39.4883C287.445 38.3789 287.66 37.0273 287.66 35.4336ZM295.008 42.5586V28.8594C295.008 27.6172 294.391 26.9766 293.156 26.9375V26.7383H298.605V26.9375C298.09 26.9531 297.656 27.1094 297.305 27.4062C296.961 27.7031 296.789 28.1875 296.789 28.8594V43.0156C296.789 43.8047 296.68 44.4805 296.461 45.043C296.25 45.6055 295.969 46.0508 295.617 46.3789C295.266 46.707 294.883 46.9414 294.469 47.082C294.062 47.2227 293.648 47.293 293.227 47.293C292.75 47.293 292.328 47.2188 291.961 47.0703C291.602 46.9219 291.293 46.7383 291.035 46.5195C290.785 46.3086 290.527 46.0547 290.262 45.7578L290.379 45.6289C291.027 46.1602 291.746 46.4258 292.535 46.4258C293.605 46.4258 294.285 46.0547 294.574 45.3125C294.863 44.5703 295.008 43.6523 295.008 42.5586ZM300.352 26.9375V26.7383H310.641V29.457H310.477C310.477 28.0039 309.508 27.2773 307.57 27.2773H303.973V35.1172H307.137C307.762 35.1172 308.32 35.0156 308.812 34.8125C309.305 34.6094 309.586 34.1445 309.656 33.418H309.832V37.332H309.656C309.586 36.8867 309.453 36.5469 309.258 36.3125C309.062 36.0703 308.867 35.9102 308.672 35.832C308.484 35.7539 308.316 35.7148 308.168 35.7148C307.887 35.668 307.594 35.6445 307.289 35.6445H303.973V41.7734C303.973 42.2344 304.059 42.6328 304.23 42.9688C304.41 43.3047 304.82 43.4727 305.461 43.4727H308.027C308.645 43.4727 309.152 43.3828 309.551 43.2031C309.949 43.0234 310.262 42.7734 310.488 42.4531C310.723 42.1328 310.918 41.7461 311.074 41.293H311.238L310.641 44H300.352V43.8125H300.586C300.953 43.8125 301.312 43.6641 301.664 43.3672C302.016 43.0703 302.191 42.5859 302.191 41.9141V28.9062C302.191 28.375 302.07 27.9141 301.828 27.5234C301.594 27.1328 301.18 26.9375 300.586 26.9375H300.352ZM328.184 30.6055H327.984C327.836 29.7617 327.438 29.0469 326.789 28.4609C326.148 27.875 325.41 27.4492 324.574 27.1836C323.738 26.9102 322.957 26.7734 322.23 26.7734C321.238 26.7734 320.305 26.9844 319.43 27.4062C318.562 27.8203 317.812 28.4102 317.18 29.1758C316.547 29.9336 316.055 30.8477 315.703 31.918C315.352 32.9805 315.176 34.1367 315.176 35.3867C315.176 36.5977 315.344 37.7227 315.68 38.7617C316.023 39.793 316.52 40.6914 317.168 41.457C317.824 42.2148 318.582 42.7891 319.441 43.1797C320.301 43.5703 321.254 43.7656 322.301 43.7656C323.176 43.7656 324.137 43.5898 325.184 43.2383C326.23 42.8789 327.176 42.2852 328.02 41.457V42.125C326.98 42.9297 326.027 43.5195 325.16 43.8945C324.301 44.2695 323.227 44.457 321.938 44.457C320.578 44.457 319.336 44.2109 318.211 43.7188C317.094 43.2188 316.148 42.5469 315.375 41.7031C314.602 40.8594 314.016 39.9102 313.617 38.8555C313.219 37.8008 313.02 36.7148 313.02 35.5977C313.02 33.918 313.434 32.3594 314.262 30.9219C315.09 29.4766 316.211 28.3359 317.625 27.5C319.039 26.6562 320.574 26.2344 322.23 26.2344C323.254 26.2344 324.344 26.3867 325.5 26.6914L326.719 27.0312C326.953 27.0781 327.152 27.1016 327.316 27.1016C327.621 27.1016 327.824 27.0586 327.926 26.9727C328.027 26.8789 328.105 26.7148 328.16 26.4805H328.348L328.184 30.6055ZM344.613 30.1016H344.426C344.34 28.9766 344.012 28.25 343.441 27.9219C342.871 27.5859 342.168 27.418 341.332 27.418H337.898V41.9141C337.898 43.1406 338.523 43.7734 339.773 43.8125V44H334.277V43.8125C334.793 43.7969 335.227 43.6484 335.578 43.3672C335.938 43.0781 336.117 42.5938 336.117 41.9141V27.418H332.684C331.848 27.418 331.145 27.5859 330.574 27.9219C330.012 28.25 329.684 28.9766 329.59 30.1016H329.402V25.8828H329.59C329.715 26.0781 329.824 26.2227 329.918 26.3164C330.012 26.4102 330.133 26.4922 330.281 26.5625C330.43 26.625 330.602 26.6719 330.797 26.7031C331 26.7266 331.238 26.7383 331.512 26.7383H342.691C343.434 26.7383 344.012 26.4531 344.426 25.8828H344.613V30.1016ZM354.762 30.0547H354.574C354.465 29.2188 354.098 28.4883 353.473 27.8633C352.855 27.2305 352.039 26.9141 351.023 26.9141C350.359 26.9141 349.77 27.0703 349.254 27.3828C348.738 27.6953 348.34 28.1211 348.059 28.6602C347.777 29.1992 347.637 29.8164 347.637 30.5117C347.637 31.0508 347.719 31.5312 347.883 31.9531C348.055 32.3672 348.305 32.7344 348.633 33.0547C348.961 33.375 349.348 33.6758 349.793 33.957C350.238 34.2305 350.84 34.5781 351.598 35C352.863 35.6953 353.848 36.3906 354.551 37.0859C355.254 37.7734 355.605 38.7188 355.605 39.9219C355.605 40.6562 355.414 41.3672 355.031 42.0547C354.656 42.7344 354.086 43.293 353.32 43.7305C352.555 44.168 351.605 44.3867 350.473 44.3867C349.762 44.3867 349.133 44.3086 348.586 44.1523C348.039 44.0039 347.484 43.793 346.922 43.5195C346.688 43.4414 346.527 43.4023 346.441 43.4023C346.277 43.4023 346.168 43.4609 346.113 43.5781C346.066 43.6953 346 43.9492 345.914 44.3398H345.715V40.0156H345.914C346.195 41.2812 346.742 42.2383 347.555 42.8867C348.367 43.5352 349.355 43.8594 350.52 43.8594C351.395 43.8594 352.094 43.6953 352.617 43.3672C353.148 43.0391 353.516 42.6406 353.719 42.1719C353.922 41.7031 354.023 41.2344 354.023 40.7656C354.023 39.7969 353.727 39.0078 353.133 38.3984C352.547 37.7812 351.652 37.1523 350.449 36.5117C349.621 36.0586 349.008 35.707 348.609 35.457C348.211 35.207 347.805 34.8828 347.391 34.4844C346.984 34.0859 346.66 33.6172 346.418 33.0781C346.176 32.5312 346.055 31.9062 346.055 31.2031C346.055 30.3906 346.27 29.6133 346.699 28.8711C347.129 28.1289 347.738 27.5352 348.527 27.0898C349.316 26.6367 350.211 26.4102 351.211 26.4102C351.969 26.4102 352.746 26.5391 353.543 26.7969C353.668 26.8594 353.836 26.8906 354.047 26.8906C354.305 26.8906 354.48 26.7148 354.574 26.3633H354.762V30.0547Z" fill="black"/>
</svg>
